<svg xmlns="http://www.w3.org/2000/svg" xmlns:xlink="http://www.w3.org/1999/xlink" id="body_1" width="284" height="173">

<defs>
        <clipPath  id="1">

            <path clip-rule="evenodd" d="M0 0L284 0L284 173L0 173z" />        </clipPath>
            <clipPath  id="2">

                <path clip-rule="evenodd" d="M0 172.763L0 0L283.465 0L283.465 172.763z" />            </clipPath>
            <clipPath  id="3">

                <path clip-rule="evenodd" d="M0 172.763L0 0L283.465 0L283.465 172.763z" />            </clipPath>
            <clipPath  id="4">

                <path clip-rule="evenodd" d="M0 172.763L0 0L283.465 0L283.465 172.763z" />            </clipPath>
            <clipPath  id="5">

                <path clip-rule="evenodd" d="M0 172.763L0 0L283.465 0L283.465 172.763z" />            </clipPath>
            <clipPath  id="6">

                <path clip-rule="evenodd" d="M0 172.763L0 0L283.465 0L283.465 172.763z" />            </clipPath>
            <clipPath  id="7">

                <path clip-rule="evenodd" d="M0 172.763L0 0L283.465 0L283.465 172.763z" />            </clipPath>
            <clipPath  id="8">

                <path clip-rule="evenodd" d="M0 172.763L0 0L283.465 0L283.465 172.763z" />            </clipPath>
            <clipPath  id="9">

                <path clip-rule="evenodd" d="M0 172.763L0 0L283.465 0L283.465 172.763z" />            </clipPath>
            <clipPath  id="10">

                <path clip-rule="evenodd" d="M0 172.763L0 0L283.465 0L283.465 172.763z" />            </clipPath>
            <clipPath  id="11">

                <path clip-rule="evenodd" d="M0 172.763L0 0L283.465 0L283.465 172.763z" />            </clipPath>
            <clipPath  id="12">

                <path clip-rule="evenodd" d="M0 172.763L0 0L283.465 0L283.465 172.763z" />            </clipPath>
            <clipPath  id="13">

                <path clip-rule="evenodd" d="M0 172.763L0 0L283.465 0L283.465 172.763z" />            </clipPath>
            <clipPath  id="14">

                <path clip-rule="evenodd" d="M0 172.763L0 0L283.465 0L283.465 172.763z" />            </clipPath>
            <clipPath  id="15">

                <path clip-rule="evenodd" d="M0 172.763L0 0L283.465 0L283.465 172.763z" />            </clipPath>
            <clipPath  id="16">

                <path clip-rule="evenodd" d="M0 172.763L0 0L283.465 0L283.465 172.763z" />            </clipPath>
            <clipPath  id="17">

                <path clip-rule="evenodd" d="M0 172.763L0 0L283.465 0L283.465 172.763z" />            </clipPath>
            <clipPath  id="18">

                <path clip-rule="evenodd" d="M0 172.763L0 0L283.465 0L283.465 172.763z" />            </clipPath>
            <clipPath  id="19">

                <path clip-rule="evenodd" d="M0 172.763L0 0L283.465 0L283.465 172.763z" />            </clipPath>
            <clipPath  id="20">

                <path clip-rule="evenodd" d="M0 172.763L0 0L283.465 0L283.465 172.763z" />            </clipPath>
            <clipPath  id="21">

                <path clip-rule="evenodd" d="M0 172.763L0 0L283.465 0L283.465 172.763z" />            </clipPath>
            <clipPath  id="22">

                <path clip-rule="evenodd" d="M0 172.763L0 0L283.465 0L283.465 172.763z" />            </clipPath>
            <clipPath  id="23">

                <path clip-rule="evenodd" d="M0 172.763L0 0L283.465 0L283.465 172.763z" />            </clipPath>
            <clipPath  id="24">

                <path clip-rule="evenodd" d="M0 172.763L0 0L283.465 0L283.465 172.763z" />            </clipPath>
            <clipPath  id="25">

                <path clip-rule="evenodd" d="M0 172.763L0 0L283.465 0L283.465 172.763z" />            </clipPath>
            <clipPath  id="26">

                <path clip-rule="evenodd" d="M0 172.763L0 0L283.465 0L283.465 172.763z" />            </clipPath>
            <clipPath  id="27">

                <path clip-rule="evenodd" d="M0 172.763L0 0L283.465 0L283.465 172.763z" />            </clipPath>
            <clipPath  id="28">

                <path clip-rule="evenodd" d="M0 172.763L0 0L283.465 0L283.465 172.763z" />            </clipPath>
            <clipPath  id="29">

                <path clip-rule="evenodd" d="M0 172.763L0 0L283.465 0L283.465 172.763z" />            </clipPath>
            <clipPath  id="30">

                <path clip-rule="evenodd" d="M0 172.763L0 0L283.465 0L283.465 172.763z" />            </clipPath>
            <clipPath  id="31">

                <path clip-rule="evenodd" d="M0 172.763L0 0L283.465 0L283.465 172.763z" />            </clipPath>
            <clipPath  id="32">

                <path clip-rule="evenodd" d="M0 172.763L0 0L283.465 0L283.465 172.763z" />            </clipPath>
            <clipPath  id="33">

                <path clip-rule="evenodd" d="M0 172.763L0 0L283.465 0L283.465 172.763z" />            </clipPath>
            <clipPath  id="34">

                <path clip-rule="evenodd" d="M0 172.763L0 0L283.465 0L283.465 172.763z" />            </clipPath>
            <clipPath  id="35">

                <path clip-rule="evenodd" d="M0 172.763L0 0L283.465 0L283.465 172.763z" />            </clipPath>
            <clipPath  id="36">

                <path clip-rule="evenodd" d="M0 172.763L0 0L283.465 0L283.465 172.763z" />            </clipPath>
            <clipPath  id="37">

                <path clip-rule="evenodd" d="M0 172.763L0 0L283.465 0L283.465 172.763z" />            </clipPath>
            <clipPath  id="38">

                <path clip-rule="evenodd" d="M0 172.763L0 0L283.465 0L283.465 172.763z" />            </clipPath>
            <clipPath  id="39">

                <path clip-rule="evenodd" d="M0 172.763L0 0L283.465 0L283.465 172.763z" />            </clipPath>
            <clipPath  id="40">

                <path clip-rule="evenodd" d="M0 172.763L0 0L283.465 0L283.465 172.763z" />            </clipPath>
            <clipPath  id="41">

                <path clip-rule="evenodd" d="M0 172.763L0 0L283.465 0L283.465 172.763z" />            </clipPath>
            <clipPath  id="42">

                <path clip-rule="evenodd" d="M0 172.763L0 0L283.465 0L283.465 172.763z" />            </clipPath>
            <clipPath  id="43">

                <path clip-rule="evenodd" d="M0 172.763L0 0L283.465 0L283.465 172.763z" />            </clipPath>
            <clipPath  id="44">

                <path clip-rule="evenodd" d="M0 172.763L0 0L283.465 0L283.465 172.763z" />            </clipPath>
            <clipPath  id="45">

                <path clip-rule="evenodd" d="M0 172.763L0 0L283.465 0L283.465 172.763z" />            </clipPath>
            <clipPath  id="46">

                <path clip-rule="evenodd" d="M0 172.763L0 0L283.465 0L283.465 172.763z" />            </clipPath>
            <clipPath  id="47">

                <path clip-rule="evenodd" d="M0 172.763L0 0L283.465 0L283.465 172.763z" />            </clipPath>
            <clipPath  id="48">

                <path clip-rule="evenodd" d="M0 172.763L0 0L283.465 0L283.465 172.763z" />            </clipPath>
            <clipPath  id="49">

                <path clip-rule="evenodd" d="M0 172.763L0 0L283.465 0L283.465 172.763z" />            </clipPath>
            <clipPath  id="50">

                <path clip-rule="evenodd" d="M0 172.763L0 0L283.465 0L283.465 172.763z" />            </clipPath>
            <clipPath  id="51">

                <path clip-rule="evenodd" d="M0 172.763L0 0L283.465 0L283.465 172.763z" />            </clipPath>
            <clipPath  id="52">

                <path clip-rule="evenodd" d="M0 172.763L0 0L283.465 0L283.465 172.763z" />            </clipPath>
            <clipPath  id="53">

                <path clip-rule="evenodd" d="M0 172.763L0 0L283.465 0L283.465 172.763z" />            </clipPath>
            <clipPath  id="54">

                <path clip-rule="evenodd" d="M0 172.763L0 0L283.465 0L283.465 172.763z" />            </clipPath>
            <clipPath  id="55">

                <path clip-rule="evenodd" d="M0 172.763L0 0L283.465 0L283.465 172.763z" />            </clipPath>
</defs>

<g transform="matrix(1.3333334 0 0 1.3333334 0 0)">
    <path d="M0 0L213 0L213 129.75L0 129.75z" stroke="none" fill="none" fill-rule="evenodd" /> <!--   fill="none" pour retireé le bagckgound a la place du background fill="#FFFFFF"   -->
	<g transform="matrix(0.75 0 0 -0.75 -0 129.75)" clip-path="url(#1)" >
        <path d="M0 0L284 0L284 173L0 173z" stroke="none" fill="none" />
        <path d="M0 0L284 0L284 173L0 173z" stroke="none" fill="none" />
        <path d="M0 0L284 0L284 173L0 173z" stroke="none" fill="none" />
        <path d="M0 0L284 0L284 173L0 173z" stroke="none" fill="none" />
        <path d="M0 0L284 0L284 173L0 173z" stroke="none" fill="none" />
        <path d="M0 172.763L0 0L283.465 0L283.465 172.763z" stroke="none" fill="none" />
        <path  clip-path="url(#2)"  d="M60.9165 100.1706L61.0009 100.5602C 61.1137 101.0783 61.2246 101.5905 61.3344 102.0954C 61.4443 102.6003 61.5527 103.0988 61.6591 103.5895C 61.707 103.8024 61.7158 103.8278 61.7749 104.0173C 61.8266 104.1813 61.8828 104.3151 61.9438 104.453804C 62.0669 104.7292 62.2251 104.985504 62.4052 105.2194C 62.7656 105.6872 63.2197 106.068 63.7221 106.3278C 63.9599 106.4552 64.2617 106.5685 64.4668 106.6291C 64.6855 106.6999 64.9023 106.7702 65.1171 106.8395C 65.3242 106.9084 65.5615 106.9797 65.7373 107.0436C 65.9443 107.1178 66.1586 107.1891 66.3315 107.2673C 66.6943 107.4108 67.0629 107.5949 67.4018 107.7814C 68.0869 108.1569 68.6948 108.5978 69.2202 109.066605C 70.2656 110.012405 71.0112 111.0344 71.4946 111.945C 71.9643 112.8581 72.2915 113.640305 72.5327 114.1447C 72.7558 114.662796 72.8745 114.9391 72.8745 114.9391C 72.8745 114.9391 72.7959 114.6476 72.6484 114.1008C 72.4668 113.5607 72.2729 112.7697 71.8823 111.7629C 71.4873 110.7668 70.8383 109.596405 69.7973 108.4787C 69.2783 107.9211 68.6626 107.3791 67.9467 106.8947C 67.5874 106.6481 67.2124 106.4299 66.7871 106.2218C 66.5727 106.1091 66.3774 106.029 66.1748 105.9391C 65.9418 105.8366 65.7553 105.7668 65.54 105.6774C 65.331 105.5929 65.1196 105.507 64.9067 105.4206C 64.6767 105.3312 64.5473 105.2658 64.3769 105.1623C 64.0585 104.967 63.7832 104.695 63.5742 104.3757C 63.4697 104.216 63.3808 104.0451 63.311 103.8649C 63.2773 103.776 63.2431 103.6784 63.2251 103.6032C 63.2085 103.5553 63.1606 103.3366 63.1601 103.3039C 63.0791 102.808304 62.997 102.3049 62.914 101.7951C 62.8305 101.2848 62.7465 100.7677 62.6611 100.2443L62.6611 100.2443L62.5971 99.8508C 62.5883 99.7687 62.5742 99.655 62.5737 99.5578C 62.5683 99.3556 62.5854 99.1515 62.6259 98.9533C 62.7075 98.5558 62.8784 98.1774 63.1259 97.8639C 63.1884 97.7858 63.2587 97.7077 63.31 97.6579C 63.3247 97.6374 63.3901 97.5822 63.4375 97.5397C 62.7016 97.5304 61.9658 97.5212 61.2299 97.5114C 61.0615 97.8825 60.9316 98.2658 60.8759 98.6593C 60.8271 98.995804 60.8173 99.3342 60.8452 99.6672C 60.8584 99.838104 60.8823 99.9894 60.9165 100.1706zM141.548 156.3757C 176.362 156.3757 205.216 130.9518 210.614 97.6633L210.614 97.6633L203.74 97.7448L194.882 97.8117L177.165 97.9391L141.732 98.0334L106.299 97.934204L88.5825 97.8078L79.7246 97.7389L72.4809 97.653C 77.8745 130.9469 106.731 156.3757 141.548 156.3757zM70.8662 94.8376L79.7246 94.7326L88.5825 94.663704L106.299 94.5373L141.732 94.4377L177.165 94.5324L194.882 94.6598L203.74 94.7267L212.598 94.8322C 236.22 95.0954 259.842 95.487 283.464 96.235504C 264.684 96.8312 245.904 97.196 227.123 97.4548C 227.148 97.717 227.153 97.9826 227.116 98.2497C 226.945 99.4943 226.748 100.7306 226.525 101.9582C 226.302 103.1794 225.469 104.224304 224.308 104.6633C 224.286 104.6716 224.263 104.6799 224.242 104.6882L224.242 104.6882L224.231 104.6916C 220.665 105.9894 217.872 108.823395 216.625 112.4079L216.625 112.4079L216.581 112.533905C 215.377 115.997696 215.739 119.8141 217.573 122.9899L217.573 122.9899L217.845 123.4621L217.858 123.485C 218.447 124.5148 218.454 125.7721 217.897 126.8195C 217.311 127.923996 216.701 129.0138 216.069 130.08951C 215.441 131.1569 214.302 131.8512 213.064 131.8664C 213.04 131.8664 213.017 131.8669 212.993 131.8669L212.993 131.8669L212.942 131.8669C 209.16 131.8669 205.578 133.56711 203.187 136.4982L203.187 136.4982L203.103 136.6012C 200.79 139.4372 199.825 143.1398 200.46 146.7443L200.46 146.7443L200.562 147.321C 200.764 148.4811 200.352 149.6608 199.479 150.4509C 198.524 151.3151 197.549 152.1584 196.556 152.9797C 195.612 153.7609 194.326 153.9899 193.172 153.57541L193.172 153.57541L193.127 153.5593L193.073 153.5392C 189.515 152.2443 185.566 152.62961 182.318 154.57541C 182.269 154.6052 182.219 154.6344 182.17 154.6637C 179.045 156.5265 176.894 159.6652 176.263 163.24773L176.263 163.24773L176.16 163.82976L176.154 163.86394C 175.946 165.02751 175.147 165.99138 174.052 166.43669C 172.898 166.90593 171.732 167.35075 170.554 167.77068C 169.387 168.18669 168.068 167.98601 167.107 167.20331C 167.084 167.18571 167.063 167.16765 167.04 167.1491L167.04 167.1491L166.915 167.04362C 164.072 164.6579 160.306 163.68132 156.662 164.38347C 156.537 164.4074 156.412 164.43132 156.287 164.45476C 152.768 165.11491 149.72 167.29655 147.93 170.39714L147.93 170.39714L147.583 170.99724L147.58 171.00407C 146.987 172.02507 145.909 172.66081 144.729 172.70427C 143.673 172.74284 142.613 172.76286 141.548 172.76286C 141.32 172.76286 141.091 172.76189 140.863 172.75993C 139.643 172.74919 138.519 172.0944 137.905 171.0407L137.905 171.0407L137.879 170.99724L137.43 170.21843C 135.802 167.3991 132.994 165.43132 129.773 164.95427C 129.229 164.87321 128.686 164.78728 128.145 164.69548C 125.022 164.1657 121.823 164.98552 119.396 167.02167L119.396 167.02167L118.28 167.95866L118.255 167.97868C 117.348 168.7365 116.116 168.9616 114.99 168.5988C 113.799 168.21501 112.619 167.80632 111.451 167.37273C 110.29 166.94109 109.409 165.93962 109.176 164.72234C 109.17 164.695 109.165 164.66716 109.16 164.63982L109.16 164.63982L108.88 163.049C 108.381 160.2223 106.6 157.797 104.07 156.4411C 103.251 156.0016 102.44 155.5485 101.638 155.0817C 99.2421 153.6867 96.3549 153.4162 93.7495 154.3644L93.7495 154.3644L91.7817 155.0807L91.7749 155.0832C 90.6655 155.4836 89.4296 155.2809 88.4995 154.5553C 87.4843 153.7634 86.4877 152.9494 85.5097 152.1139C 84.5786 151.319 84.1318 150.0944 84.3398 148.88791L84.3398 148.88791L84.3476 148.8425L84.3554 148.7985C 85.0151 145.0568 83.9467 141.2233 81.4594 138.3512C 81.4345 138.3219 81.4091 138.2931 81.3842 138.2638C 78.9965 135.4987 75.519 133.9167 71.8657 133.9167L71.8657 133.9167L71.2866 133.9167L71.2714 133.9167C 70.0888 133.9123 69 133.29361 68.3701 132.2927C 67.7041 131.2345 67.06 130.1613 66.4394 129.0729C 65.8247 127.9943 65.7915 126.6574 66.3984 125.574905C 66.4106 125.5539 66.4223 125.5334 66.4345 125.5119L66.4345 125.5119L66.8833 124.735C 68.5063 121.923004 68.8056 118.5173 67.6152 115.496796C 67.4174 114.9953 67.2246 114.490906 67.0366 113.9841C 65.9238 110.9811 63.5888 108.5925 60.5795 107.4972L60.5795 107.4972L59.2661 107.0187L59.2392 107.009C 58.1259 106.5983 57.3129 105.6393 57.0659 104.4782C 56.8071 103.2614 56.5742 102.0348 56.3671 100.7995C 56.1621 99.578804 56.5878 98.3151 57.5268 97.5075C 57.5434 97.4933 57.56 97.4792 57.5771 97.465004C 38.3847 97.2057 19.1923 96.8405 -4.19788E-05 96.235504C 23.622 95.4914 47.2441 95.1017 70.8662 94.8376z" stroke="none" fill="#FFF4D4" fill-rule="nonzero" />
        <path  clip-path="url(#3)"  d="M141.548 16.386993C 118.282 16.386993 97.6723 27.744003 84.9453 45.211998L84.9453 45.211998L88.5825 45.183L106.299 45.056L141.732 44.958L177.165 45.051003L194.882 45.179L198.145 45.204002C 185.418 27.740005 164.811 16.386993 141.548 16.386993zM136.551 8.6349945C 136.457 8.746994 136.326 8.921005 136.133 9.125C 135.762 9.542999 135.173 10.126007 134.349 10.753006C 133.525 11.376007 132.44 12.024994 131.104 12.503998C 130.437 12.740997 129.708 12.932999 128.929 13.050995L128.929 13.050995L128.632 13.095993L128.334 13.130997C 128.126 13.153 127.907 13.184998 127.712 13.190002C 127.315 13.216995 126.891 13.223007 126.463 13.205994C 124.752 13.1380005 122.923 12.664993 121.229 11.735001C 120.81 11.496994 120.396 11.236008 120 10.940002C 119.805 10.789001 119.602 10.645004 119.417 10.477005L119.417 10.477005L119.132 10.233994C 118.955 10.085007 118.943 10.065002 118.755 9.930008C 117.609 9.091995 116.068 8.925995 114.74 9.412994C 113.677 9.789001 112.596 10.169998 111.502 10.555008C 111.177 10.669998 110.803 10.856003 110.497 11.067993C 110.183 11.281998 109.895 11.537994 109.645 11.830002C 109.147 12.404007 108.81 13.166 108.684 13.8849945C 108.572 14.466003 108.459 15.048996 108.347 15.634003C 108.232 16.205002 108.1 16.649002 107.898 17.158005C 107.507 18.141998 106.912 19.048996 106.167 19.811005C 105.799 20.195007 105.397 20.548996 104.964 20.861008C 104.745 21.013 104.522 21.160995 104.291 21.294998L104.291 21.294998L103.512 21.757004C 103 22.057999 102.489 22.358994 101.979 22.660004C 101.706 22.824005 101.493 22.923996 101.271 23.035004C 101.03 23.141006 100.788 23.246002 100.539 23.332C 99.5468 23.675995 98.4995 23.845001 97.4663 23.815002C 96.9497 23.798996 96.4355 23.744995 95.9365 23.630005C 95.4287 23.516006 94.9799 23.365997 94.4257 23.162994C 94.1606 23.067993 93.8964 22.973007 93.6333 22.878998L93.6333 22.878998L93.5288 22.841003L93.394 22.798004C 93.3217 22.776001 93.2778 22.759003 93.1679 22.733002C 92.9677 22.680008 92.7973 22.651001 92.622 22.628998C 91.9189 22.539001 91.2119 22.638 90.5791 22.884995C 90.2622 23.007004 89.9624 23.166 89.6865 23.352997C 89.5439 23.449005 89.4238 23.544006 89.2827 23.662003L89.2827 23.662003L88.9848 23.927002C 88.5883 24.279999 88.1967 24.628006 87.8105 24.970993C 87.4243 25.315002 87.0434 25.653 86.6684 25.987C 86.5058 26.132996 86.4882 26.153 86.3525 26.298996C 86.2348 26.423996 86.1455 26.537994 86.0546 26.660004C 85.875 26.902008 85.7299 27.166 85.6142 27.436996C 85.3833 27.981003 85.2744 28.563004 85.2949 29.128998C 85.3002 29.397995 85.3501 29.716003 85.3974 29.925003C 85.4433 30.151001 85.4887 30.373993 85.5336 30.595001C 85.5751 30.809006 85.6293 31.050995 85.6601 31.236008C 85.6972 31.451996 85.7402 31.673996 85.7568 31.863007C 85.8095 32.25 85.83 32.660995 85.8339 33.048996C 85.8432 33.83 85.7573 34.574997 85.6069 35.263C 85.2959 36.638 84.771 37.789 84.2148 38.656998C 83.6499 39.515 83.1289 40.183 82.8081 40.641006C 82.4658 41.089996 82.2836 41.328995 82.2836 41.328995C 82.2836 41.328995 82.499 41.117996 82.9028 40.72C 83.2841 40.298004 83.8784 39.740005 84.5639 38.906006C 85.2377 38.072998 85.9394 36.933 86.4023 35.477005C 86.6333 34.752 86.8037 33.949005 86.874 33.087997C 86.9126 32.654007 86.9189 32.218994 86.8911 31.748001C 86.8842 31.505005 86.8579 31.296005 86.8369 31.074997C 86.8125 30.821 86.7812 30.625 86.7534 30.393005C 86.7246 30.169998 86.6958 29.944 86.6665 29.714996C 86.6313 29.470993 86.625 29.326996 86.6318 29.128006C 86.6455 28.753998 86.7475 28.380997 86.9228 28.042007C 87.0112 27.873001 87.1162 27.710999 87.2387 27.561996C 87.2998 27.488998 87.3681 27.410995 87.4248 27.358002C 87.458 27.320007 87.6254 27.171005 87.6538 27.154999C 88.0459 26.839996 88.4438 26.522003 88.8471 26.199997C 89.2509 25.876999 89.6601 25.548996 90.0742 25.218002L90.0742 25.218002L90.3857 24.968994C 90.4531 24.921997 90.5454 24.852997 90.6298 24.805008C 90.8037 24.701004 90.9892 24.617004 91.1821 24.554C 91.5683 24.430008 91.9824 24.393005 92.3769 24.455994C 92.4755 24.470993 92.5781 24.494995 92.6464 24.514008C 92.6728 24.516998 92.7592 24.550003 92.8198 24.570007L92.8198 24.570007L92.8833 24.591995L92.9751 24.628998C 93.2353 24.731003 93.496 24.835007 93.7583 24.938004C 94.2558 25.139008 94.8784 25.376007 95.4853 25.527008C 96.0981 25.688004 96.7334 25.778 97.375 25.817993C 98.6591 25.904999 99.977 25.723999 101.221 25.296005C 101.533 25.192001 101.838 25.065002 102.141 24.934006C 102.454 24.785995 102.776 24.626007 103.015 24.485C 103.535 24.184998 104.057 23.884995 104.58 23.584L104.58 23.584L105.352 23.136993C 105.642 22.973007 105.922 22.793 106.198 22.604004C 106.743 22.218994 107.255 21.783997 107.72 21.300995C 108.645 20.334 109.382 19.182999 109.864 17.936005C 110.104 17.332 110.298 16.621994 110.407 16.020996C 110.514 15.434006 110.62 14.850006 110.726 14.268005C 110.861 13.416 111.425 12.7400055 112.196 12.430008C 113.278 12.0099945 114.346 11.595001 115.397 11.186996C 116.176 10.856995 117.088 10.966003 117.731 11.371002C 117.77 11.382996 117.966 11.539001 117.998 11.561005L117.998 11.561005L118.34 11.824997C 118.563 12.005997 118.804 12.160004 119.037 12.320999C 119.509 12.6349945 119.997 12.910004 120.49 13.156006C 122.471 14.132004 124.569 14.503006 126.46 14.436996C 126.934 14.421997 127.392 14.382004 127.853 14.315994C 128.089 14.291 128.289 14.244995 128.498 14.207001L128.498 14.207001L128.821 14.143005L129.133 14.065994C 129.965 13.860001 130.73 13.580994 131.417 13.261002C 132.798 12.628998 133.849 11.811005 134.625 11.076996C 135.408 10.343002 135.903 9.662003 136.225 9.195007C 136.391 8.9640045 136.497 8.776001 136.576 8.653C 136.652 8.529007 136.692 8.464996 136.692 8.464996C 136.692 8.464996 136.644 8.522003 136.551 8.6349945zM203.74 48.264L194.882 48.332L177.165 48.459L141.732 48.553L106.299 48.454002L88.5825 48.327003L79.7246 48.258003L70.8662 48.154C 47.2441 47.889 23.622 47.5 -4.19788E-05 46.755997C 21.8295 46.067 43.6591 45.688004 65.4887 45.425003C 65.9887 44.5 66.4956 43.578995 67.0273 42.673996C 67.6547 41.606003 68.7934 40.912003 70.0322 40.897003C 70.0556 40.895996 70.0795 40.895996 70.103 40.895996L70.103 40.895996L70.1547 40.895996C 73.9467 40.895996 77.5322 39.184006 79.9272 36.244003C 79.9511 36.214005 79.9755 36.184006 80 36.154007C 82.3134 33.322006 83.2714 29.619995 82.6362 26.018005L82.6362 26.018005L82.5346 25.442001C 82.3325 24.281998 82.7446 23.102005 83.6171 22.311996C 84.5727 21.447998 85.5468 20.604996 86.54 19.783997C 87.4848 19.001999 88.7705 18.772995 89.9243 19.188004L89.9243 19.188004L89.9687 19.203995L89.996 19.214005C 93.5712 20.515 97.5385 20.126999 100.803 18.173004C 100.836 18.153 100.869 18.132996 100.902 18.113998C 104.041 16.240997 106.204 13.0890045 106.838 9.488007L106.838 9.488007L106.936 8.932999L106.942 8.899002C 107.151 7.7360077 107.95 6.770996 109.044 6.326004C 110.198 5.8569946 111.364 5.4129944 112.541 4.992996C 113.709 4.576004 115.029 4.777008 115.99 5.5590057C 116.012 5.578003 116.034 5.595001 116.055 5.6139984L116.055 5.6139984L116.077 5.632004C 118.986 8.072998 122.837 9.065002 126.568 8.354004C 126.606 8.345993 126.644 8.339996 126.682 8.333008C 130.281 7.651001 133.399 5.425003 135.231 2.253006L135.231 2.253006L135.512 1.7660065L135.517 1.7579956C 136.109 0.7380066 137.187 0.102005005 138.368 0.059005737C 139.423 0.020004272 140.483 0 141.548 0C 141.777 0 142.005 0.0010070801 142.233 0.0039978027C 143.453 0.013000488 144.577 0.66900635 145.192 1.7220001L145.192 1.7220001L145.217 1.7660065L145.232 1.7929993C 147.13 5.080002 150.408 7.3370056 154.156 7.9369965L154.156 7.9369965L154.288 7.958008C 157.899 8.537003 161.582 7.5180054 164.384 5.1679993L164.384 5.1679993L164.817 4.804001L164.841 4.7839966C 165.748 4.027008 166.981 3.8009949 168.106 4.1640015C 169.297 4.548996 170.477 4.9570007 171.645 5.3899994C 172.807 5.822006 173.688 6.822998 173.92 8.041C 173.926 8.067993 173.931 8.095001 173.936 8.123993L173.936 8.123993L173.941 8.151001C 174.598 11.880997 176.897 15.117004 180.202 16.964996L180.202 16.964996L180.326 17.035004C 183.521 18.822006 187.336 19.130005 190.778 17.878006L190.778 17.878006L191.314 17.682007L191.321 17.680008C 192.431 17.279999 193.666 17.481995 194.597 18.208008C 195.612 19 196.609 19.813995 197.586 20.649002C 198.517 21.444 198.964 22.669006 198.756 23.875L198.756 23.875L198.748 23.921005L198.741 23.964996C 198.082 27.695007 199.139 31.522995 201.617 34.389008L201.617 34.389008L201.704 34.490005C 204.096 37.257004 207.573 38.845993 211.231 38.845993L211.231 38.845993L211.81 38.845993L211.825 38.845993C 213.007 38.850006 214.096 39.468994 214.726 40.47C 215.392 41.529007 216.036 42.602005 216.657 43.690002C 216.959 44.220993 217.104 44.814003 217.118 45.409004C 239.233 45.671997 261.349 46.054 283.464 46.755997C 259.842 47.503998 236.22 47.895004 212.598 48.159004L212.598 48.159004L203.74 48.264z" stroke="none" fill="#FFF4D4" fill-rule="nonzero" />
        <path  clip-path="url(#4)"  d="M106.772 128.5197C 107.842 129.4601 108.493 130.40201 108.726 130.97769L108.726 130.97769L107.701 131.6706C 107.439 131.048 106.861 130.2848 106.17 129.6774C 104.033 127.7975 101.579 128.0905 99.687 130.2414C 97.6582 132.549 97.8691 135.0695 99.9287 136.881C 100.659 137.5226 101.409 137.905 102.023 138.0749L102.023 138.0749L101.483 139.2409C 101.045 139.134 100.148 138.7609 99.0527 137.798C 96.3281 135.40201 96.1035 131.8986 98.5219 129.1476C 101.056 126.2663 104.296 126.3415 106.772 128.5197z" stroke="none" fill="#FFF4D4" fill-rule="nonzero" />
        <path  clip-path="url(#5)"  d="M112.388 136.1662C 112.471 136.0339 112.534 135.8683 112.573 135.7082C 112.747 134.9767 112.529 134.0192 111.603 133.4362C 110.942 133.0202 110.134 133.0651 109.606 133.9025C 108.737 135.2839 110.182 136.5422 111.611 137.4001L111.611 137.4001L112.388 136.1662zM108.272 139.0534C 109.727 139.9694 110.555 139.01291 110.925 138.425L110.925 138.425L111.017 138.2785C 108.26 136.5632 107.324 134.6613 108.406 132.9416C 109.054 131.9133 110.426 131.362 111.867 132.2682C 112.88 132.9064 113.33 133.8869 113.375 134.6955L113.375 134.6955L113.419 134.72281L114.086 133.8913L115.262 134.631C 114.869 135.0607 114.46 135.6442 114.072 136.2619L114.072 136.2619L112.397 138.9211C 111.5 140.3464 110.037 141.4977 107.862 140.1291C 106.966 139.5646 106.271 138.7785 105.924 138.0261L105.924 138.0261L106.754 137.3591C 107.05 137.9972 107.611 138.6369 108.272 139.0534z" stroke="none" fill="#FFF4D4" fill-rule="nonzero" />
        <path  clip-path="url(#6)"  d="M120.245 136.9767L119.857 145.9972L118.396 145.3503L118.817 140.3708C 118.873 139.5597 118.932 138.8259 119.039 138.1135L119.039 138.1135L118.991 138.0925C 118.551 138.6569 118.063 139.2009 117.499 139.7868L117.499 139.7868L114.078 143.4372L112.585 142.7761L118.912 136.3859L120.245 136.9767z" stroke="none" fill="#FFF4D4" fill-rule="nonzero" />
        <path  clip-path="url(#7)"  d="M125.248 146.6476C 126.906 147.1066 127.71 145.7614 127.954 144.8195L127.954 144.8195L123.651 143.6286C 123.486 144.6818 123.758 146.2355 125.248 146.6476zM127.598 139.3322C 128.887 139.6891 129.7 140.2023 130.153 140.5807L130.153 140.5807L129.611 141.5656C 129.123 141.1779 128.538 140.818 127.483 140.5261C 126.01 140.1188 124.511 140.58661 123.926 142.5695L123.926 142.5695L129.618 144.1447C 129.593 144.3 129.561 144.5436 129.478 144.8449C 129.066 146.3346 127.719 148.467 125.074 147.735C 122.714 147.0817 121.807 144.7585 122.483 142.3141C 123.16 139.8703 125.103 138.6418 127.598 139.3322z" stroke="none" fill="#FFF4D4" fill-rule="nonzero" />
        <path  clip-path="url(#8)"  d="M138.839 150.8488L137.194 153.2468L135.511 153.1554L137.763 150.7897L138.839 150.8488z" stroke="none" fill="#FFF4D4" fill-rule="nonzero" />
        <path  clip-path="url(#9)"  d="M139.976 145.6384L140.055 144.1808C 140.064 144.0251 140.039 143.8498 139.995 143.6906C 139.791 142.9665 139.135 142.2341 138.042 142.1745C 137.262 142.132 136.577 142.5641 136.522 143.5534C 136.434 145.1843 138.309 145.5822 139.976 145.6384zM135.005 143.2966C 135.072 142.0822 136.005 140.9323 137.705 141.0256C 138.902 141.0905 139.771 141.7292 140.204 142.4142L140.204 142.4142L140.256 142.4172L140.435 141.3659L141.823 141.4416C 141.687 142.008 141.614 142.7175 141.575 143.4465L141.575 143.4465L141.403 146.5861C 141.311 148.2687 140.591 149.9875 138.023 149.8473C 136.965 149.7892 135.975 149.4391 135.306 148.95041L135.306 148.95041L135.707 147.9631C 136.277 148.3771 137.079 148.6642 137.859 148.7072C 139.577 148.801 139.836 147.5622 139.874 146.8678L139.874 146.8678L139.883 146.695C 136.638 146.53531 134.894 145.3263 135.005 143.2966z" stroke="none" fill="#FFF4D4" fill-rule="nonzero" />
        <path  clip-path="url(#10)"  d="M149.806 146.4543L151.04 146.2497C 152.666 145.9797 153.912 145.1047 153.65 143.5285C 153.372 141.8503 151.856 141.5207 150.315 141.7765C 149.784 141.8639 149.359 141.9523 149.076 142.0524L149.076 142.0524L149.806 146.4543zM150.61 151.3014C 150.858 151.3132 151.26 151.2995 151.946 151.1857C 153.453 150.9357 154.393 150.2341 154.168 148.881C 153.984 147.7677 152.922 147.0988 151.346 147.3605L151.346 147.3605L149.994 147.5851L150.61 151.3014zM153.864 141.0998C 154.54 141.5685 155.058 142.257 155.223 143.2502C 155.507 144.9631 154.373 146.0842 153.323 146.5397L153.323 146.5397L153.328 146.5744C 154.618 146.8176 155.516 147.672 155.701 148.7848C 155.851 149.693 155.606 150.4382 155.08 150.9821C 154.457 151.6843 153.54 152.1003 152.05 152.3473C 151.005 152.5207 149.96 152.5881 149.287 152.5593L149.287 152.5593L147.404 141.2028C 147.889 141.0519 148.665 140.8527 149.694 140.6823C 151.578 140.3703 152.936 140.4968 153.864 141.0998z" stroke="none" fill="#FFF4D4" fill-rule="nonzero" />
        <path  clip-path="url(#11)"  d="M159.784 148.6208C 160.368 148.4513 160.85 148.7443 160.98 149.2492C 161.13 149.76581 160.896 150.2682 160.346 150.4284C 159.813 150.5837 159.313 150.2951 159.163 149.7785C 159.017 149.278 159.267 148.7717 159.784 148.6208z" stroke="none" fill="#FFF4D4" fill-rule="nonzero" />
        <path  clip-path="url(#12)"  d="M160.153 147.0304L158.686 147.4577L156.336 139.3884L157.804 138.9611L160.153 147.0304z" stroke="none" fill="#FFF4D4" fill-rule="nonzero" />
        <path  clip-path="url(#13)"  d="M167.624 145.4792L167.173 148.3576L165.62 149.0075L166.616 145.9006L167.624 145.4792z" stroke="none" fill="#FFF4D4" fill-rule="nonzero" />
        <path  clip-path="url(#14)"  d="M165.842 144.00461C 167.427 143.342 167.229 141.7878 166.838 140.8976L166.838 140.8976L162.722 142.6183C 163.243 143.5485 164.416 144.6003 165.842 144.00461zM163.17 136.8068C 164.404 136.2912 165.359 136.19211 165.95 136.20871L165.95 136.20871L166.131 137.318C 165.509 137.3146 164.827 137.3932 163.818 137.8146C 162.41 138.40399 161.52 139.6974 162.285 141.6164L162.285 141.6164L167.729 139.34C 167.805 139.4772 167.931 139.6877 168.051 139.9762C 168.648 141.4015 168.906 143.9084 166.375 144.9665C 164.118 145.91031 161.971 144.6447 160.994 142.3073C 160.016 139.9694 160.785 137.8039 163.17 136.8068z" stroke="none" fill="#FFF4D4" fill-rule="nonzero" />
        <path  clip-path="url(#15)"  d="M168.978 134.0964L171.216 137.9792C 171.346 138.2048 171.498 138.3981 171.632 138.5612C 172.384 139.45041 173.455 139.7761 174.387 139.2385C 174.569 139.1344 174.695 139.0407 174.813 138.9333L174.813 138.9333L175.533 140.1818C 175.43 140.2814 175.333 140.3571 175.183 140.444C 174.295 140.9557 173.141 140.798 172.247 140.0109L172.247 140.0109L172.187 140.0456L172.965 141.5016L171.807 142.1691C 171.461 141.466 171.051 140.7204 170.557 139.862L170.557 139.862L167.668 134.8512L168.978 134.0964z" stroke="none" fill="#FFF4D4" fill-rule="nonzero" />
        <path  clip-path="url(#16)"  d="M179.256 136.2638C 180.629 135.2297 180.053 133.7726 179.455 133.0065L179.455 133.0065L175.891 135.69211C 176.625 136.46451 178.023 137.194 179.256 136.2638zM174.137 135.8176C 172.612 133.79361 172.822 131.50461 174.887 129.9474C 175.956 129.1427 176.858 128.8112 177.433 128.6813L177.433 128.6813L177.884 129.71161C 177.28 129.8625 176.638 130.1071 175.765 130.7648C 174.544 131.6847 174.003 133.1584 175.218 134.8288L175.218 134.8288L179.932 131.2765C 180.04 131.3903 180.214 131.5636 180.403 131.8136C 181.332 133.047 182.203 135.4133 180.012 137.0646C 178.057 138.5383 175.664 137.8425 174.137 135.8176z" stroke="none" fill="#FFF4D4" fill-rule="nonzero" />
        <path  clip-path="url(#17)"  d="M180.706 126.384C 180.165 126.922 179.819 127.706696 179.706 128.2345L179.706 128.2345L178.616 127.6794C 178.79 127.0168 179.234 126.2565 179.886 125.6081C 181.301 124.199905 182.848 124.131 183.889 125.1774C 184.77 126.0636 184.755 127.1066 184.113 128.5295C 183.631 129.5959 183.495 130.1725 183.985 130.6647C 184.425 131.1081 185.15 131.1222 185.79 130.485C 186.343 129.9343 186.579 129.3088 186.665 128.9289L186.665 128.9289L187.72 129.4474C 187.583 129.9753 187.225 130.6735 186.622 131.2736C 185.341 132.5466 183.783 132.53 182.828 131.57C 182.118 130.85611 182.036 129.7634 182.727 128.3166C 183.233 127.225296 183.259 126.635895 182.746 126.1193C 182.255 125.627106 181.495 125.600296 180.706 126.384z" stroke="none" fill="#FFF4D4" fill-rule="nonzero" />
        <path  clip-path="url(#18)"  d="M151.604 109.217896C 151.625 109.4206 151.806 109.5676 152.008 109.5466C 152.21 109.5261 152.358 109.3449 152.337 109.1427C 152.184 107.6628 152.201 106.141304 152.215 104.6696C 152.217 104.4626 152.22 104.2555 152.221 104.0485C 152.223 103.8454 152.06 103.6789 151.856 103.6774C 151.855 103.6774 151.854 103.6774 151.853 103.6774C 151.651 103.6774 151.487 103.8405 151.485 104.0426C 151.483 104.2492 151.481 104.4552 151.479 104.661804C 151.463 106.154 151.448 107.6969 151.604 109.217896zM152.397 113.8561C 153.762 117.4787 154.165 120.2575 153.699 122.8669C 153.663 123.0671 153.796 123.257996 153.997 123.2941C 154.197 123.3298 154.388 123.1965 154.424 122.9963C 154.694 121.4811 154.682 119.904495 154.388 118.1764C 154.152 116.7912 153.726 115.2927 153.086 113.596405C 153.031 113.448395 152.891 113.357605 152.742 113.357605C 152.699 113.357605 152.655 113.3654 152.612 113.3815C 152.421 113.4533 152.326 113.665695 152.397 113.8561zM147.114 111.040695C 147.562 109.7614 147.745 106.9216 147.641 102.8283L147.641 102.8283L147.631 102.4504L152.754 102.4504L152.745 102.8283C 152.642 106.9216 152.825 109.7619 153.274 111.0412C 153.33 111.2009 153.39 111.3722 153.456 111.5549C 154.148 113.496796 155.307 116.747696 155.307 120.2013C 155.307 122.1535 154.973 124.0549 154.343 125.7009L154.343 125.7009L154.252 125.9377L146.134 125.9377L146.043 125.7009C 145.413 124.0549 145.08 122.153 145.08 120.2013C 145.08 116.747696 146.239 113.496796 146.931 111.5549C 146.997 111.3722 147.057 111.2009 147.114 111.040695z" stroke="none" fill="#FFF4D4" fill-rule="nonzero" />
        <path  clip-path="url(#19)"  d="M145.511 126.8932L154.874 126.8932C 155.771 124.9777 156.262 122.6169 156.262 120.2013C 156.262 116.5827 155.069 113.2341 154.356 111.2331C 154.291 111.0529 154.231 110.882996 154.175 110.7248C 153.596 109.0724 153.641 104.6823 153.719 102.213104C 153.72 102.1789 153.721 102.1535 153.721 102.1369C 153.701 101.8019 153.613 101.5832 153.554 101.4948L153.554 101.4948L146.832 101.4948C 146.774 101.5832 146.686 101.8024 146.665 102.1369C 146.665 102.1535 146.666 102.1789 146.667 102.213104C 146.746 104.6823 146.79 109.0724 146.211 110.7248C 146.156 110.882996 146.095 111.0529 146.031 111.2341C 145.318 113.2345 144.123 116.5827 144.123 120.2013C 144.123 122.6169 144.615 124.9777 145.511 126.8932zM145.168 110.3591C 145.542 109.2917 145.691 106.2594 145.563 102.2477C 145.559 102.1266 145.559 102.1242 145.561 102.0973C 145.616 101.0759 146.088 100.3893 146.738 100.3893L146.738 100.3893L153.649 100.3893C 154.298 100.3893 154.771 101.0759 154.826 102.0973C 154.828 102.1242 154.828 102.1266 154.824 102.2477C 154.696 106.2594 154.843 109.2917 155.218 110.3591C 155.273 110.5158 155.332 110.6838 155.396 110.862C 156.133 112.9303 157.368 116.3913 157.368 120.2013C 157.368 122.9548 156.795 125.5456 155.714 127.6945L155.714 127.6945L155.561 127.9982L144.826 127.9982L144.672 127.6945C 143.59 125.5456 143.019 122.9548 143.019 120.2013C 143.019 116.3918 144.252 112.9308 144.99 110.863C 145.053 110.6838 145.114 110.5158 145.168 110.3591z" stroke="none" fill="#FFF4D4" fill-rule="nonzero" />
        <path  clip-path="url(#20)"  d="M129.792 134.9772C 129.831 135.2653 129.899 135.7707 129.95 136.1413L129.95 136.1413L130.013 136.6086L129.749 136.64081L134.55 136.64081L134.286 136.6086L134.349 136.1413C 134.399 135.7707 134.468 135.2653 134.507 134.9772L134.507 134.9772L134.153 134.9694L134.173 134.4972C 134.177 134.3967 134.278 132.03241 134.601 129.4294C 135.049 125.8107 135.7 123.4469 136.534 122.404C 136.839 122.0221 137.235 121.114395 137.385 118.9596C 137.487 117.4987 137.437 116.0436 137.411 115.2619L137.411 115.2619L137.411 115.2536C 137.403 115.043106 137.398 114.8913 137.398 114.797L137.398 114.797L137.398 101.9543C 137.337 101.8947 136.988 101.630104 135.505 101.4621C 134.406 101.3371 133.185 101.3185 132.555 101.3185C 132.457 101.3185 132.309 101.319 132.165 101.3215L132.165 101.3215L132.149 101.3215L132.135 101.3215C 131.989 101.319 131.842 101.3185 131.744 101.3185C 131.114 101.3185 129.893 101.3371 128.793 101.4621C 127.32 101.6291 126.966 101.8918 126.9 101.9552L126.9 101.9552L126.9 114.797C 126.9 114.8913 126.895 115.043106 126.888 115.2536L126.888 115.2536L126.888 115.2604C 126.861 116.0427 126.812 117.497696 126.914 118.9596C 127.064 121.114395 127.46 122.0221 127.765 122.404C 128.6 123.4469 129.25 125.8107 129.698 129.4294C 130.021 132.0319 130.122 134.3967 130.126 134.4958L130.126 134.4958L130.145 134.9694L129.792 134.9772zM128.627 136.6525C 128.627 136.3674 128.759 136.1012 128.983 135.9279C 128.836 134.8469 128.836 134.8459 128.836 134.8088C 128.836 134.55139 128.967 134.3141 129.181 134.175C 129.14 133.4098 129.025 131.5495 128.776 129.5387C 128.354 126.1447 127.754 123.8781 127.04 122.9845C 126.467 122.2687 126.123 120.9733 125.987 119.0241C 125.882 117.5148 125.932 116.028 125.959 115.229706C 125.966 115.0324 125.972 114.8766 125.972 114.797L125.972 114.797L125.972 101.9181C 125.972 101.4753 126.291 101.133 126.921 100.900604C 127.314 100.756 127.86 100.6398 128.544 100.5558C 129.722 100.4113 131.054 100.3893 131.744 100.3893L131.744 100.3893L131.744 100.3893C 131.826 100.3893 131.988 100.3898 132.149 100.3923C 132.311 100.3898 132.473 100.3893 132.555 100.3893C 133.244 100.3893 134.577 100.4113 135.755 100.5558C 136.439 100.6398 136.985 100.756 137.378 100.900604C 138.008 101.133 138.328 101.4753 138.328 101.9181L138.328 101.9181L138.328 114.797C 138.328 114.879105 138.333 115.048996 138.34 115.2292C 138.367 116.028 138.417 117.5148 138.312 119.0241C 138.176 120.9733 137.832 122.2687 137.259 122.9845C 136.544 123.8786 135.944 126.1462 135.522 129.5431C 135.274 131.5524 135.159 133.4108 135.119 134.175C 135.332 134.3141 135.462 134.55139 135.462 134.8088C 135.462 134.8459 135.462 134.8469 135.316 135.9279C 135.54 136.1012 135.671 136.3674 135.671 136.6525C 135.671 137.1584 135.26 137.5695 134.754 137.5695L134.754 137.5695L129.544 137.5695C 129.039 137.5695 128.627 137.1584 128.627 136.6525z" stroke="none" fill="#FFF4D4" fill-rule="nonzero" />
        <path  clip-path="url(#21)"  d="M135.328 121.466C 135.367 121.3962 135.402 121.3346 135.432 121.280396L135.432 121.280396L135.437 121.2717C 135.875 120.425995 136.062 119.5363 136.045 118.387405C 136.202 114.5226 136.114 111.4987 136.021 108.2951C 135.971 106.5671 135.919 104.7804 135.9 102.738C 136.128 102.777 136.303 102.8161 136.426 102.8503L136.426 102.8503L136.426 114.7546C 136.426 114.86 136.431 115.007 136.439 115.2292C 136.464 115.9704 136.511 117.350296 136.415 118.7219C 136.269 120.8312 135.879 121.4675 135.764 121.6125C 135.356 122.120804 134.999 123.395706 134.686 124.398605C 134.686 124.398605 134.473 124.363495 134.16 124.3298C 134.225 124.2658 134.278 124.1862 134.292 124.091C 134.461 122.9928 135.025 121.9992 135.328 121.466z" stroke="none" fill="#FFF4D4" fill-rule="nonzero" />
        <path  clip-path="url(#22)"  d="M129.651 124.551895C 129.339 123.5485 128.929 122.120804 128.522 121.6125C 128.406 121.4675 128.017 120.8312 127.87 118.7219C 127.774 117.350296 127.821 115.9704 127.847 115.2292C 127.854 115.007 127.859 114.86 127.859 114.7546L127.859 114.7546L127.859 102.8503C 128.122 102.777504 128.593 102.6823 129.398 102.612C 130.319 102.5314 131.268 102.5197 131.751 102.5197C 131.844 102.5197 131.982 102.5202 132.116 102.5221C 132.132 102.5226 132.141 102.5226 132.143 102.5226C 132.144 102.5226 132.154 102.5226 132.169 102.5221C 132.303 102.5202 132.442 102.5197 132.535 102.5197C 133.018 102.5197 133.966 102.5314 134.887 102.612C 134.957 102.6183 135.012 102.6252 135.077 102.632C 135.065 102.6716 135.032 102.7004 135.032 102.7433C 135.051 104.7956 135.103 106.5876 135.154 108.3234C 135.247 111.5114 135.334 114.5231 135.178 118.3669L135.178 118.3669L135.178 118.3888C 135.194 119.3908 135.037 120.155396 134.669 120.8664C 134.644 120.9133 134.613 120.966995 134.579 121.026505L134.579 121.026505L134.573 121.0373C 134.242 121.6198 133.627 122.7038 133.435 123.9596C 133.417 124.073395 133.446 124.1862 133.513 124.279C 133.036 124.2546 132.501 124.2594 132.075 124.3566C 130.959 124.610504 129.651 124.551895 129.651 124.551895z" stroke="none" fill="#FFF4D4" fill-rule="nonzero" />
        <path  clip-path="url(#23)"  d="M133.258 126.8293C 133.263 126.8288 133.268 126.8288 133.272 126.8288C 133.288 126.8288 133.304 126.8298 133.319 126.831696C 133.435 126.8439 133.538 126.900604 133.611 126.990906C 133.684 127.0812 133.717 127.1945 133.704 127.3097C 133.334 130.7184 133.21 131.8659 133.189 134.0876C 133.186 134.3244 132.991 134.5173 132.754 134.5173C 132.511 134.5148 132.318 134.318 132.321 134.0793C 132.343 131.8141 132.468 130.6554 132.841 127.2165C 132.864 127.0026 133.044 126.836105 133.258 126.8293z" stroke="none" fill="#FFF4D4" fill-rule="nonzero" />
        <path  clip-path="url(#24)"  d="M2.75533 84.9128L2.75533 60.477997L16.3496 60.477997L16.3496 63.125L5.90914 63.125L5.90914 84.9128L2.75533 84.9128z" stroke="none" fill="#FFF4D4" fill-rule="nonzero" />
        <path  clip-path="url(#25)"  d="M20.0468 85.3112L16.748 84.985C 16.3491 82.3747 15.4067 78.6042 14.6093 76.4655L14.6093 76.4655L16.6391 76.7194C 17.6543 78.3874 19.2133 82.266304 20.0468 85.3112z" stroke="none" fill="#FFF4D4" fill-rule="nonzero" />
        <path  clip-path="url(#26)"  d="M23.6347 60.477997L37.3745 60.477997L37.3745 63.125L26.789 63.125L26.789 71.934L36.2871 71.934L36.2871 74.5446L26.789 74.5446L26.789 82.266304L36.8305 82.266304L36.8305 84.9128L23.6347 84.9128L23.6347 60.477997z" stroke="none" fill="#FFF4D4" fill-rule="nonzero" />
        <path  clip-path="url(#27)"  d="M31.8281 90.4592L28.4565 86.2175L31.0664 86.2175L35.6704 90.4592L31.8281 90.4592z" stroke="none" fill="#FFF4D4" fill-rule="nonzero" />
        <path  clip-path="url(#28)"  d="M49.3735 75.849304C 51.1132 75.849304 52.31 75.4509 53.0712 75.0153L53.0712 75.0153L53.7963 77.4811C 52.9262 77.9157 51.2583 78.3874 49.3735 78.3874C 43.6455 78.3874 39.9477 74.4723 39.9477 69.07C 39.9477 63.705 43.3916 60.115997 48.6845 60.115997C 51.041 60.115997 52.8896 60.696 53.7236 61.132004L53.7236 61.132004L53.1796 63.524002C 52.2734 63.125 51.0771 62.654 49.2646 62.654C 45.7846 62.654 43.1743 65.155 43.1743 69.215004C 43.1743 72.8766 45.3496 75.849304 49.3735 75.849304z" stroke="none" fill="#FFF4D4" fill-rule="nonzero" />
        <path  clip-path="url(#29)"  d="M72.393 60.477997L72.393 70.92C 72.393 76.9733 68.6225 78.4235 66.2666 78.4235C 65.0698 78.4235 63.9462 78.0612 63.0039 77.5173C 62.0249 76.9733 61.2275 76.1755 60.7197 75.2692L60.7197 75.2692L60.6474 75.2692L60.6474 86.2175L57.457 86.2175L57.457 60.477997L60.6474 60.477997L60.6474 71.064C 60.6474 71.68 60.6836 72.152 60.8647 72.587C 61.4448 74.3268 63.0761 75.777 65.1425 75.777C 68.1513 75.777 69.2026 73.3844 69.2026 70.556L69.2026 70.556L69.2026 60.477997L72.393 60.477997z" stroke="none" fill="#FFF4D4" fill-rule="nonzero" />
        <path  clip-path="url(#30)"  d="M90.1918 69.288C 90.1918 65.337 87.9077 62.472 84.8627 62.472C 81.7451 62.472 79.5336 65.373 79.5336 69.215004C 79.5336 72.55 81.165 76.0309 84.935 76.0309C 88.7055 76.0309 90.1918 72.26 90.1918 69.288zM76.3071 69.106C 76.3071 63.559998 79.9687 60.08 84.7177 60.08C 88.9589 60.08 93.4545 62.907997 93.4545 69.396C 93.4545 74.7624 90.0468 78.4235 85.0078 78.4235C 80.1499 78.4235 76.3071 74.9792 76.3071 69.106z" stroke="none" fill="#FFF4D4" fill-rule="nonzero" />
        <path  clip-path="url(#31)"  d="M100.632 70.63C 100.632 71.064 100.741 71.536 100.849 71.934C 101.466 74.3268 103.496 75.8854 105.671 75.8854C 109.042 75.8854 110.891 72.8766 110.891 69.36C 110.891 65.337 108.934 62.581 105.562 62.581C 103.278 62.581 101.357 64.104004 100.777 66.315C 100.704 66.714 100.632 67.149 100.632 67.62L100.632 67.62L100.632 70.63zM100.632 53.300003L100.632 62.835L100.704 62.835C 101.756 61.094 103.786 60.08 106.106 60.08C 110.239 60.08 114.081 63.197998 114.081 69.506C 114.081 74.8346 110.891 78.4235 106.65 78.4235C 103.786 78.4235 101.719 77.155 100.414 75.0153L100.414 75.0153L100.342 75.0153L100.197 78.0251L97.333 78.0251C 97.4052 76.3571 97.478 74.5446 97.478 72.297L97.478 72.297L97.478 53.300003L100.632 53.300003z" stroke="none" fill="#FFF4D4" fill-rule="nonzero" />
        <path  clip-path="url(#32)"  d="M121.258 70.63C 121.258 71.064 121.367 71.536 121.476 71.934C 122.092 74.3268 124.122 75.8854 126.297 75.8854C 129.669 75.8854 131.518 72.8766 131.518 69.36C 131.518 65.337 129.56 62.581 126.188 62.581C 123.905 62.581 121.983 64.104004 121.403 66.315C 121.331 66.714 121.258 67.149 121.258 67.62L121.258 67.62L121.258 70.63zM121.258 53.300003L121.258 62.835L121.331 62.835C 122.382 61.094 124.412 60.08 126.732 60.08C 130.865 60.08 134.707 63.197998 134.707 69.506C 134.707 74.8346 131.518 78.4235 127.276 78.4235C 124.412 78.4235 122.346 77.155 121.04 75.0153L121.04 75.0153L120.968 75.0153L120.823 78.0251L117.959 78.0251C 118.032 76.3571 118.104 74.5446 118.104 72.297L118.104 72.297L118.104 53.300003L121.258 53.300003z" stroke="none" fill="#FFF4D4" fill-rule="nonzero" />
        <path  clip-path="url(#33)"  d="M140.543 70.956C 140.797 73.1667 142.211 76.1393 145.437 76.1393C 149.026 76.1393 149.896 72.986 149.86 70.956L149.86 70.956L140.543 70.956zM152.942 70.158C 152.942 73.3844 151.418 78.4235 145.691 78.4235C 140.58 78.4235 137.462 74.2546 137.462 68.962C 137.462 63.669 140.688 60.115997 146.09 60.115997C 148.881 60.115997 150.802 60.696 151.926 61.204002L151.926 61.204002L151.382 63.487C 150.186 62.980003 148.809 62.581 146.525 62.581C 143.334 62.581 140.58 64.357 140.507 68.672L140.507 68.672L152.832 68.672C 152.869 68.998 152.942 69.506 152.942 70.158z" stroke="none" fill="#FFF4D4" fill-rule="nonzero" />
        <path  clip-path="url(#34)"  d="M176.54 67.838C 176.54 67.33 176.503 66.895004 176.395 66.461C 175.815 64.067 173.857 62.654 171.718 62.654C 168.275 62.654 166.535 65.590004 166.535 69.143C 166.535 73.0221 168.492 75.9216 171.791 75.9216C 174.184 75.9216 175.923 74.2546 176.395 72.224C 176.503 71.826004 176.54 71.282 176.54 70.882L176.54 70.882L176.54 67.838zM176.54 86.2175L176.54 75.7409L176.467 75.7409C 175.67 77.155 173.857 78.4235 171.174 78.4235C 166.897 78.4235 163.272 74.8346 163.308 68.998C 163.308 63.669 166.571 60.08 170.812 60.08C 173.676 60.08 175.815 61.566 176.793 63.524002L176.793 63.524002L176.867 63.524002L177.011 60.477997L179.875 60.477997C 179.766 61.674004 179.73 63.451004 179.73 65.01L179.73 65.01L179.73 86.2175L176.54 86.2175z" stroke="none" fill="#FFF4D4" fill-rule="nonzero" />
        <path  clip-path="url(#35)"  d="M186.835 70.956C 187.089 73.1667 188.502 76.1393 191.729 76.1393C 195.318 76.1393 196.188 72.986 196.152 70.956L196.152 70.956L186.835 70.956zM199.233 70.158C 199.233 73.3844 197.71 78.4235 191.983 78.4235C 186.872 78.4235 183.753 74.2546 183.753 68.962C 183.753 63.669 186.98 60.115997 192.381 60.115997C 195.173 60.115997 197.094 60.696 198.218 61.204002L198.218 61.204002L197.674 63.487C 196.478 62.980003 195.101 62.581 192.817 62.581C 189.626 62.581 186.872 64.357 186.799 68.672L186.799 68.672L199.124 68.672C 199.161 68.998 199.233 69.506 199.233 70.158z" stroke="none" fill="#FFF4D4" fill-rule="nonzero" />
        <path  clip-path="url(#36)"  d="M216.996 74.5807L214.132 74.5807L214.132 82.4469C 214.639 82.5563 215.473 82.6647 216.923 82.6647C 220.114 82.6647 222.289 81.5407 222.289 78.6774C 222.289 76.321 220.331 74.5807 216.996 74.5807zM223.05 67.475C 223.05 63.923004 220.041 62.725998 216.779 62.725998C 215.655 62.725998 214.748 62.762 214.132 62.871002L214.132 62.871002L214.132 72.188L216.742 72.188C 220.186 72.188 223.05 70.81 223.05 67.475zM225.479 79.0036C 225.479 80.9245 224.717 82.3747 223.449 83.3171C 221.926 84.5495 219.896 85.0939 216.742 85.0939C 214.531 85.0939 212.356 84.8766 210.978 84.5866L210.978 84.5866L210.978 60.551003C 212.03 60.406 213.697 60.261 215.872 60.261C 219.86 60.261 222.615 60.986 224.319 62.545C 225.551 63.740997 226.385 65.337 226.385 67.439C 226.385 71.064 223.666 72.986 221.346 73.5651L221.346 73.5651L221.346 73.6384C 223.92 74.5807 225.479 76.6471 225.479 79.0036z" stroke="none" fill="#FFF4D4" fill-rule="nonzero" />
        <path  clip-path="url(#37)"  d="M232.112 84.9489C 230.952 84.9489 230.118 84.078804 230.118 82.9548C 230.118 81.8669 230.915 80.9977 232.04 80.9977C 233.308 80.9977 234.106 81.8669 234.07 82.9548C 234.07 84.078804 233.308 84.9489 232.112 84.9489z" stroke="none" fill="#FFF4D4" fill-rule="nonzero" />
        <path  clip-path="url(#38)"  d="M230.517 60.477997L233.706 60.477997L233.706 78.0251L230.517 78.0251L230.517 60.477997z" stroke="none" fill="#FFF4D4" fill-rule="nonzero" />
        <path  clip-path="url(#39)"  d="M240.812 70.956C 241.066 73.1667 242.48 76.1393 245.706 76.1393C 249.294 76.1393 250.165 72.986 250.128 70.956L250.128 70.956L240.812 70.956zM253.21 70.158C 253.21 73.3844 251.688 78.4235 245.959 78.4235C 240.848 78.4235 237.731 74.2546 237.731 68.962C 237.731 63.669 240.956 60.115997 246.359 60.115997C 249.15 60.115997 251.071 60.696 252.195 61.204002L252.195 61.204002L251.651 63.487C 250.455 62.980003 249.078 62.581 246.793 62.581C 243.603 62.581 240.848 64.357 240.776 68.672L240.776 68.672L253.101 68.672C 253.137 68.998 253.21 69.506 253.21 70.158z" stroke="none" fill="#FFF4D4" fill-rule="nonzero" />
        <path  clip-path="url(#40)"  d="M244.763 85.601204L241.247 85.601204L245.669 80.4176L247.954 80.4176L244.763 85.601204z" stroke="none" fill="#FFF4D4" fill-rule="nonzero" />
        <path  clip-path="url(#41)"  d="M260.315 60.477997L260.315 69.832C 260.315 70.376 260.387 70.882 260.46 71.318C 260.895 73.7106 262.49 75.4147 264.738 75.4147C 265.172 75.4147 265.499 75.3786 265.826 75.3053L265.826 75.3053L265.826 78.3141C 265.536 78.3874 265.282 78.4235 264.919 78.4235C 262.78 78.4235 260.859 76.9372 260.061 74.5807L260.061 74.5807L259.916 74.5807L259.807 78.0251L257.016 78.0251C 257.124 76.3932 257.161 74.6169 257.161 72.55L257.161 72.55L257.161 60.477997L260.315 60.477997z" stroke="none" fill="#FFF4D4" fill-rule="nonzero" />
        <path  clip-path="url(#42)"  d="M270.465 70.956C 270.719 73.1667 272.132 76.1393 275.359 76.1393C 278.948 76.1393 279.818 72.986 279.782 70.956L279.782 70.956L270.465 70.956zM282.864 70.158C 282.864 73.3844 281.34 78.4235 275.613 78.4235C 270.501 78.4235 267.383 74.2546 267.383 68.962C 267.383 63.669 270.61 60.115997 276.011 60.115997C 278.803 60.115997 280.724 60.696 281.848 61.204002L281.848 61.204002L281.304 63.487C 280.108 62.980003 278.731 62.581 276.447 62.581C 273.256 62.581 270.501 64.357 270.429 68.672L270.429 68.672L282.754 68.672C 282.79 68.998 282.864 69.506 282.864 70.158z" stroke="none" fill="#FFF4D4" fill-rule="nonzero" />
        <path  clip-path="url(#43)"  d="M108.875 34.834L107.736 35.533005L109.658 38.664C 109.887 38.583008 110.245 38.423004 110.822 38.067993C 112.091 37.287994 112.682 36.309006 111.982 35.17C 111.406 34.231995 110.202 34.018005 108.875 34.834zM109.547 30.527008C 108.679 29.113007 107.189 29.373001 105.891 30.171005C 105.444 30.445007 105.092 30.681 104.874 30.875L104.874 30.875L107.151 34.582L108.189 33.944C 109.56 33.100998 110.362 31.854004 109.547 30.527008zM110.375 33.395004C 111.63 33.141006 112.755 33.582 113.331 34.520004C 113.8 35.285004 113.852 36.048004 113.578 36.731995C 113.273 37.593994 112.598 38.307007 111.343 39.078003C 110.464 39.619003 109.545 40.063995 108.926 40.285004L108.926 40.285004L103.052 30.722C 103.435 30.408005 104.063 29.942001 104.928 29.410995C 106.514 28.436005 107.788 28.050995 108.847 28.255997C 109.629 28.430008 110.351 28.861008 110.865 29.697006C 111.751 31.139008 111.139 32.569 110.357 33.365997L110.357 33.365997L110.375 33.395004z" stroke="none" fill="#FFF4D4" fill-rule="nonzero" />
        <path  clip-path="url(#44)"  d="M116.924 26.447998C 116.864 26.307999 116.766 26.166 116.659 26.046005C 116.167 25.501007 115.278 25.145996 114.298 25.567001C 113.598 25.867996 113.187 26.541 113.568 27.427994C 114.195 28.89 116.005 28.425995 117.485 27.755005L117.485 27.755005L116.924 26.447998zM117.601 32.274002C 116.652 32.681 115.636 32.804 114.84 32.667007L114.84 32.667007L114.764 31.630997C 115.44 31.746002 116.265 31.649994 116.965 31.348999C 118.505 30.688004 118.195 29.494003 117.928 28.871994L117.928 28.871994L117.861 28.716003C 114.958 29.981003 112.913 29.680008 112.132 27.86C 111.665 26.770996 111.981 25.363998 113.506 24.710007C 114.579 24.248993 115.615 24.430008 116.289 24.841003L116.289 24.841003L116.335 24.821L116.037 23.826004L117.282 23.291C 117.409 23.843994 117.651 24.496002 117.932 25.149002L117.932 25.149002L119.141 27.964996C 119.789 29.473007 119.903 31.285004 117.601 32.274002z" stroke="none" fill="#FFF4D4" fill-rule="nonzero" />
        <path  clip-path="url(#45)"  d="M123.406 28.236008L123.341 28.255997L123.753 29.809998L122.505 30.184006C 122.335 29.440002 122.114 28.64 121.837 27.716003L121.837 27.716003L120.222 22.315994L121.632 21.893997L122.884 26.078003C 122.956 26.321 123.057 26.539001 123.148 26.723007C 123.663 27.735 124.604 28.283997 125.609 27.983002C 125.804 27.923996 125.945 27.865005 126.081 27.789001L126.081 27.789001L126.484 29.134003C 126.364 29.205994 126.255 29.257004 126.094 29.305008C 125.137 29.591003 124.078 29.182999 123.406 28.236008z" stroke="none" fill="#FFF4D4" fill-rule="nonzero" /> <!--  fill="#FFF4D4" pour le paser en couelur beige au lieu du noir fill="#000000"-->
        <path  clip-path="url(#46)"  d="M134.933 22.085007C 134.915 21.932999 134.862 21.768997 134.794 21.623993C 134.478 20.962006 133.728 20.367996 132.669 20.492004C 131.913 20.580002 131.327 21.108002 131.438 22.065994C 131.623 23.645996 133.488 23.718002 135.098 23.496002L135.098 23.496002L134.933 22.085007zM133.92 27.858994C 132.895 27.977997 131.887 27.806 131.164 27.447998L131.164 27.447998L131.386 26.432999C 132.001 26.737 132.818 26.880005 133.574 26.792007C 135.238 26.597 135.282 25.365997 135.204 24.692993L135.204 24.692993L135.184 24.524994C 132.043 24.908997 130.169 24.037003 129.94 22.071C 129.802 20.893997 130.507 19.636002 132.155 19.444C 133.314 19.309006 134.255 19.778 134.784 20.363998L134.784 20.363998L134.834 20.358002L134.831 19.319L136.176 19.162994C 136.141 19.729004 136.187 20.421997 136.269 21.128006L136.269 21.128006L136.624 24.169998C 136.815 25.798996 136.408 27.567993 133.92 27.858994z" stroke="none" fill="#FFF4D4" fill-rule="nonzero" />
        <path  clip-path="url(#47)"  d="M134.869 28.684998L133.686 31.257996L132.057 31.449005L133.826 28.806L134.869 28.684998z" stroke="none" fill="#FFF4D4" fill-rule="nonzero" />
        <path  clip-path="url(#48)"  d="M146.179 20.309006C 145.657 20.264008 145.235 20.244995 144.943 20.270004L144.943 20.270004L144.57 24.602997L145.784 24.708008C 147.384 24.845001 148.772 24.320007 148.906 22.768005C 149.048 21.117004 147.697 20.440002 146.179 20.309006zM144.159 29.373993C 144.39 29.445007 144.773 29.528 145.448 29.587006C 146.931 29.714996 147.988 29.279999 148.102 27.947006C 148.197 26.850998 147.357 25.964005 145.805 25.830002L145.805 25.830002L144.474 25.714996L144.159 29.373993zM147.869 25.533005L147.867 25.567001C 149.025 26.108002 149.667 27.132004 149.573 28.227005C 149.496 29.121002 149.083 29.764008 148.456 30.152008C 147.699 30.664001 146.732 30.835007 145.266 30.709C 144.237 30.619995 143.235 30.432007 142.606 30.242004L142.606 30.242004L143.57 19.065002C 144.065 19.039993 144.846 19.039001 145.857 19.126999C 147.711 19.287003 148.963 19.733994 149.694 20.527008C 150.219 21.132996 150.542 21.908005 150.457 22.884995C 150.313 24.572006 148.971 25.356003 147.869 25.533005z" stroke="none" fill="#FFF4D4" fill-rule="nonzero" />
        <path   clip-path="url(#49)"  d="M153.006 30.815002C 152.905 31.330002 152.477 31.658997 151.929 31.550003C 151.398 31.446 151.095 30.972 151.197 30.458008C 151.295 29.960007 151.739 29.632004 152.253 29.733994C 152.834 29.848999 153.122 30.320007 153.006 30.815002z" stroke="none" fill="#FFF4D4" fill-rule="nonzero" />
        <path  clip-path="url(#50)"  d="M151.826 28.235L153.413 20.199005L154.874 20.488007L153.287 28.524002L151.826 28.235z" stroke="none" fill="#FFF4D4" fill-rule="nonzero" />
        <path  clip-path="url(#51)"  d="M159.303 31.298996L157.165 33.17L155.597 32.684006L158.285 30.983002L159.303 31.298996z" stroke="none" fill="#FFF4D4" fill-rule="nonzero" />
        <path  clip-path="url(#52)"  d="M157.425 26.093994C 157.233 27.115005 157.453 28.634995 158.892 29.080994C 160.492 29.576996 161.315 28.291 161.58 27.380997L161.58 27.380997L157.425 26.093994zM161.248 23.186005C 159.827 22.746002 158.352 23.156998 157.724 25.070007L157.724 25.070007L163.22 26.772003C 163.191 26.923004 163.154 27.158997 163.063 27.449997C 162.618 28.888 161.244 30.925003 158.689 30.134003C 156.411 29.427994 155.595 27.139008 156.327 24.779007C 157.057 22.419998 158.987 21.281006 161.395 22.026001C 162.639 22.412003 163.416 22.936005 163.847 23.317001L163.847 23.317001L163.29 24.259995C 162.826 23.869003 162.267 23.501999 161.248 23.186005z" stroke="none" fill="#FFF4D4" fill-rule="nonzero" />
        <path  clip-path="url(#53)"  d="M166.23 29.440994C 165.962 30.544998 166.32 31.574005 167.28 32C 167.465 32.083008 167.611 32.128998 167.764 32.158997L167.764 32.158997L167.195 33.444C 167.057 33.42 166.942 33.386 166.788 33.317993C 165.874 32.914 165.336 31.914993 165.442 30.757996L165.442 30.757996L165.379 30.731003L164.681 32.180008L163.49 31.652008C 163.845 30.975998 164.197 30.223999 164.588 29.341995L164.588 29.341995L166.874 24.190994L168.22 24.787994L166.45 28.779999C 166.346 29.011002 166.281 29.242004 166.23 29.440994z" stroke="none" fill="#FFF4D4" fill-rule="nonzero" />
        <path  clip-path="url(#54)"  d="M170.756 31.436996C 170.335 32.386993 170.202 33.919006 171.499 34.681C 172.945 35.53 174.04 34.466003 174.506 33.64L174.506 33.64L170.756 31.436996zM175.144 29.481003C 173.86 28.725998 172.331 28.789993 171.282 30.509003L171.282 30.509003L176.243 33.423996C 176.18 33.563995 176.089 33.785995 175.935 34.048004C 175.172 35.345993 173.368 37.014008 171.062 35.660995C 169.004 34.451996 168.736 32.035995 169.987 29.906006C 171.239 27.774994 173.377 27.108002 175.552 28.384995C 176.675 29.046005 177.312 29.733002 177.644 30.203995L177.644 30.203995L176.885 30.994003C 176.524 30.507004 176.063 30.020996 175.144 29.481003z" stroke="none" fill="#FFF4D4" fill-rule="nonzero" />
        <path  clip-path="url(#55)"  d="M179.665 37.177994C 178.573 36.847 177.998 36.789 177.583 37.324005C 177.211 37.806 177.29 38.507996 177.986 39.046997C 178.588 39.511993 179.223 39.660004 179.601 39.696L179.601 39.696L179.234 40.781006C 178.706 40.714996 177.986 40.458008 177.33 39.951004C 175.937 38.875 175.755 37.365997 176.563 36.321C 177.163 35.545 178.208 35.326004 179.695 35.811005C 180.814 36.162994 181.386 36.113007 181.821 35.550003C 182.234 35.015 182.164 34.276 181.307 33.614C 180.717 33.158997 179.915 32.923996 179.391 32.882004L179.391 32.882004L179.79 31.757004C 180.452 31.839996 181.243 32.173996 181.953 32.722C 183.493 33.912994 183.756 35.399002 182.876 36.537994C 182.131 37.502 181.121 37.619003 179.665 37.177994z" stroke="none" fill="#FFF4D4" fill-rule="nonzero" />
        <path d="" stroke="none" fill="none" />
        <path d="" stroke="none" fill="none" />
        <path d="M0 0L284 0L284 173L0 173z" stroke="none" fill="none" />
        <path d="M0 0L284 0L284 173L0 173z" stroke="none" fill="none" />
	</g>
</g>
</svg>