<?xml version="1.0" standalone="no"?>
<!DOCTYPE svg PUBLIC "-//W3C//DTD SVG 20010904//EN"
 "http://www.w3.org/TR/2001/REC-SVG-20010904/DTD/svg10.dtd">
<svg version="1.0" xmlns="http://www.w3.org/2000/svg"
 width="1113.000000pt" height="1280.000000pt" viewBox="0 0 1113.000000 1280.000000"
 preserveAspectRatio="xMidYMid meet">
<metadata>
Created by potrace 1.15, written by Peter Selinger 2001-2017
</metadata>
<g transform="translate(0.000000,1280.000000) scale(0.100000,-0.100000)"
fill="#000000" stroke="none">
<path d="M1990 12563 c-360 -4 -871 -23 -1005 -39 -160 -18 -314 -52 -420 -93
-150 -58 -268 -179 -320 -330 -23 -64 -31 -79 -37 -64 -6 12 -7 5 -4 -20 3
-20 1 -35 -3 -32 -21 12 -45 -536 -72 -1625 -6 -239 -12 -1366 -14 -2505 -3
-2186 -20 -4847 -32 -5200 -4 -126 -10 -196 -14 -175 -6 29 -4 -462 4 -905 1
-66 0 -268 -2 -450 -5 -323 -5 -331 17 -379 12 -26 19 -52 16 -57 -3 -5 2 -12
10 -15 9 -3 14 -9 11 -14 -2 -4 20 -37 50 -73 186 -226 426 -323 1027 -417
760 -120 1370 -154 2743 -154 682 -1 888 3 1095 16 140 9 309 20 375 23 255
13 702 57 975 96 593 84 838 231 919 550 24 95 41 266 41 424 0 161 14 244 50
313 16 31 30 62 30 68 0 6 16 18 36 27 19 10 59 35 89 57 157 116 265 139 760
160 274 12 448 30 588 59 435 92 884 346 1261 711 208 202 332 366 456 603
259 494 370 1020 465 2207 38 479 43 1208 15 1960 -34 899 -126 1556 -280
2005 -246 715 -916 1394 -1658 1681 -235 91 -374 116 -862 154 -275 21 -435
42 -499 63 -59 21 -129 74 -226 171 -125 126 -131 140 -144 366 -12 192 -31
329 -56 399 -28 79 -102 167 -185 218 -51 32 -467 122 -655 142 -211 23 -958
56 -1595 71 -361 8 -2292 10 -2950 3z m-515 -93 c4 -6 -7 -10 -24 -10 -17 0
-31 5 -31 10 0 6 11 10 24 10 14 0 28 -4 31 -10z m113 -2 c-6 -16 -36 -34 -44
-26 -3 4 -4 14 -1 23 7 17 51 21 45 3z m3232 -18 c453 -15 973 -46 1425 -86
187 -16 260 -33 148 -34 -70 0 -113 -13 -113 -34 0 -20 53 -36 119 -36 58 -1
183 -21 386 -64 66 -14 143 -26 170 -27 68 -1 99 -11 103 -33 3 -15 -1 -18
-17 -13 -12 3 -21 1 -21 -3 0 -15 84 -70 107 -70 25 0 27 9 24 90 l-2 45 19
-31 c22 -34 68 -74 86 -74 7 0 17 5 24 12 9 9 5 18 -18 39 -28 26 -49 74 -37
85 11 11 45 -16 60 -49 27 -55 37 -120 47 -295 11 -187 13 -663 4 -711 -4 -17
-10 -31 -14 -31 -12 0 -21 46 -31 169 -7 91 -13 120 -28 134 -18 19 -19 18
-30 -30 -15 -62 -15 -128 -1 -378 11 -202 3 -479 -19 -640 -5 -38 -13 -185
-16 -325 -6 -255 -6 -255 17 -295 20 -34 29 -40 62 -43 l39 -3 -6 -922 c-10
-1598 -59 -3561 -89 -3592 -7 -7 -8 31 -4 110 12 222 26 1793 24 2760 -1 528
-4 924 -7 880 l-6 -80 -24 160 c-12 88 -27 169 -32 180 -5 11 -10 43 -12 70
-2 28 -4 -4 -5 -70 -2 -66 -7 -262 -12 -435 -8 -284 -20 -985 -50 -2970 -12
-824 -20 -1690 -14 -1630 3 25 9 54 14 65 5 11 11 38 13 60 3 22 2 -21 0 -95
-3 -74 -9 -169 -14 -210 -16 -123 -23 -614 -10 -714 10 -88 15 -105 27 -94 9
10 23 252 34 593 6 176 15 376 20 445 5 69 13 197 17 285 6 134 9 149 14 95 3
-36 6 -54 7 -41 2 27 15 72 43 145 11 27 20 58 21 70 1 11 4 -10 8 -49 4 -38
7 77 8 258 1 180 6 327 10 327 32 0 28 -1905 -4 -2017 -3 -12 -16 -24 -29 -27
-12 -3 -48 -35 -79 -71 -32 -36 -64 -65 -71 -65 -18 0 -23 -52 -36 -374 -6
-153 -14 -289 -20 -303 -5 -13 -9 -138 -8 -276 1 -139 4 -241 8 -227 10 34 24
-196 16 -246 -4 -22 -14 -44 -22 -50 -22 -18 -8 -53 53 -133 30 -40 54 -76 54
-81 0 -5 15 -21 34 -35 56 -43 70 -84 62 -189 -7 -114 -16 -166 -27 -166 -5 0
-10 17 -10 38 -2 26 -3 29 -6 12 -3 -19 -18 -32 -66 -55 -34 -16 -65 -34 -69
-40 -4 -5 -8 13 -9 40 -2 100 -17 103 -19 5 -1 -57 -4 -87 -9 -75 -5 12 -11
-44 -15 -135 -3 -85 -9 -180 -11 -210 -4 -39 -2 -49 4 -35 13 28 14 0 1 -47
-23 -83 -64 -108 -286 -172 -129 -38 -185 -51 -250 -61 -22 -3 -56 -10 -75
-15 -18 -6 -104 -15 -190 -22 -219 -16 -453 0 -616 43 -252 67 -234 64 -305
46 -34 -9 -121 -35 -193 -57 -268 -83 -464 -109 -890 -117 -336 -6 -463 2
-660 43 -150 30 -361 96 -376 117 -9 13 -109 23 -164 16 -27 -3 -85 -15 -129
-27 -204 -56 -583 -73 -846 -38 -237 32 -477 98 -659 182 -40 18 -77 31 -82
28 -5 -3 -8 0 -7 8 2 7 -8 14 -22 16 -21 2 -22 1 -10 -9 12 -9 11 -10 -5 -4
-27 10 -204 56 -235 62 -17 3 -31 -2 -43 -15 -16 -18 -22 -18 -60 -7 -30 9
-43 19 -47 36 -4 13 -10 114 -14 224 -11 332 26 742 57 625 7 -26 21 -25 34 2
l11 23 9 -25 c7 -16 12 322 17 970 7 1070 15 1617 25 1603 3 -5 20 -15 37 -22
31 -12 32 -14 39 -94 6 -76 8 -83 33 -95 14 -6 33 -12 42 -12 20 0 87 -56 78
-65 -3 -3 -24 3 -47 14 -82 42 -77 55 -84 -246 -5 -201 -11 -1644 -8 -1697 1
-5 7 -3 14 3 8 6 17 8 20 4 4 -3 15 5 26 18 29 34 26 16 -5 -30 -43 -66 -54
-121 -53 -270 0 -122 2 -133 14 -106 12 27 13 28 14 8 1 -13 7 -23 16 -23 18
0 22 76 4 82 -16 5 -25 223 -10 232 19 12 33 -44 38 -154 4 -91 0 -129 -32
-290 -39 -201 -55 -363 -37 -374 14 -8 23 23 67 239 56 269 58 275 67 275 4 0
8 -7 8 -16 0 -8 4 -13 9 -10 5 4 21 2 35 -4 19 -7 26 -6 26 2 0 6 2 9 6 6 3
-3 -18 -136 -45 -294 -39 -225 -81 -487 -81 -510 0 -3 134 -54 143 -54 4 0 93
-32 197 -70 104 -39 193 -70 196 -70 3 0 4 7 0 15 -9 24 30 27 169 10 170 -21
530 -31 568 -16 53 21 25 68 -52 91 -18 5 -86 12 -151 16 -113 6 -120 8 -120
28 0 12 -3 16 -8 10 -4 -6 -62 -14 -139 -18 -117 -5 -133 -4 -133 10 0 8 16
108 35 222 29 176 75 499 75 533 0 7 48 9 141 6 116 -4 141 -3 146 9 3 8 14
19 25 25 24 13 37 -1 39 -41 0 -19 2 -21 7 -8 6 13 20 16 75 15 58 -2 67 0 67
16 0 10 -12 29 -26 42 l-26 24 34 21 c18 11 56 27 83 36 28 9 63 24 80 32 l30
15 -46 11 c-48 13 -119 52 -119 66 0 17 59 20 195 10 215 -15 195 -20 194 48
0 31 -3 51 -6 45 -3 -9 -30 -13 -81 -13 -42 -1 -96 -5 -119 -9 -38 -7 -42 -6
-45 13 -2 17 -13 22 -50 28 -92 13 -88 38 5 39 l62 0 -42 19 c-23 10 -47 28
-53 39 -9 18 -21 21 -83 22 -40 0 -92 4 -117 8 l-45 8 30 12 c58 24 176 50
273 60 90 9 99 12 125 41 54 60 36 64 -178 36 -71 -9 -177 -16 -235 -15 -104
0 -105 1 -65 15 62 23 219 64 335 88 91 19 105 25 108 44 2 14 -6 27 -23 38
-38 25 -31 66 13 79 17 5 32 12 32 16 0 8 -141 19 -247 19 -45 0 -85 5 -88 10
-3 6 -4 10 -1 10 3 0 45 7 93 15 49 8 152 19 230 24 156 11 186 20 181 54 -3
21 -7 22 -120 22 -113 -1 -144 6 -96 19 20 5 21 7 8 20 -29 29 -372 66 -634
69 -191 2 -220 -5 -236 -62 -8 -31 -18 -41 -57 -59 -66 -30 -124 -45 -153 -40
-21 4 -15 9 40 35 74 34 99 58 82 75 -17 17 -99 -4 -190 -48 -84 -41 -162
-109 -162 -143 0 -19 -4 -22 -23 -18 -32 9 -42 -1 -71 -66 -19 -44 -30 -58
-43 -55 -13 3 -18 12 -16 33 1 17 6 237 12 490 16 712 19 744 64 731 108 -31
421 -70 504 -63 45 3 80 0 121 -13 59 -19 253 -49 327 -51 l40 -2 -35 -7 c-19
-4 -27 -8 -18 -9 9 0 25 -12 36 -26 11 -14 24 -25 29 -25 13 0 43 -55 43 -79
0 -12 5 -21 10 -21 6 0 10 -9 10 -20 0 -11 3 -20 8 -20 4 0 12 -15 19 -32 29
-84 45 -123 52 -128 4 -3 25 -39 47 -80 42 -81 187 -239 221 -241 16 0 16 -1
-2 -8 -13 -5 -2 -10 41 -14 33 -4 68 -9 77 -13 22 -8 22 -31 0 -37 -14 -4 -13
-5 4 -6 12 0 28 -7 36 -15 12 -13 15 -4 21 67 3 45 6 253 6 463 0 209 3 421 6
471 l7 90 51 -9 c28 -4 66 -9 85 -10 l34 -2 -5 -571 c-3 -313 -2 -559 1 -545
4 14 8 -76 10 -199 2 -265 10 -313 52 -357 l30 -31 -38 1 c-33 1 -38 -2 -41
-22 -4 -28 14 -51 52 -67 l29 -12 -36 -7 c-20 -4 -43 -16 -50 -26 -8 -11 -17
-17 -20 -13 -4 3 -7 -72 -7 -168 0 -96 4 -169 8 -163 6 10 105 31 125 26 11
-3 8 74 -5 102 -7 16 -31 35 -60 48 -40 18 -46 24 -31 29 30 12 88 10 107 -4
18 -13 35 -72 36 -123 0 -44 25 -51 26 -8 0 19 4 37 8 41 12 12 27 -20 23 -49
-2 -19 0 -25 7 -19 6 5 22 11 36 13 25 3 25 2 32 -93 7 -97 27 -169 48 -169 6
0 18 17 27 38 12 28 14 62 11 143 l-4 107 120 33 c119 33 123 34 296 30 96 -2
178 -7 181 -12 11 -18 176 -27 574 -34 220 -3 415 -9 433 -12 l32 -5 0 -107
c0 -72 -3 -101 -10 -91 -6 10 -10 11 -10 3 0 -7 -8 -13 -18 -13 -10 0 -22 -4
-27 -9 -6 -4 -32 -17 -59 -26 -26 -10 -54 -24 -61 -31 -10 -10 -14 0 -19 54
-8 78 -31 155 -52 172 -11 10 -17 10 -30 -1 -27 -23 -34 -55 -35 -187 -1 -70
-4 -120 -6 -110 -4 14 -14 13 -86 -14 -133 -50 -381 -133 -542 -183 -116 -36
-530 -144 -647 -169 -22 -5 -28 21 -28 117 0 44 -4 77 -10 77 -5 0 -10 -8 -10
-18 0 -10 -6 -27 -14 -37 -13 -18 -14 -17 -29 6 -8 13 -18 43 -22 67 -4 24 -9
42 -11 39 -3 -3 -52 -274 -54 -296 0 -2 -3 -2 -6 2 -3 3 -17 2 -30 -3 -19 -8
-24 -6 -25 8 -1 9 -5 -25 -9 -76 -5 -51 -11 -100 -15 -110 -7 -15 -8 -15 -15
3 -5 11 -9 41 -9 67 -1 26 -5 50 -11 53 -5 3 -10 -1 -10 -9 0 -8 -5 -27 -11
-43 -14 -38 -29 -13 -29 52 0 28 -4 45 -8 39 -11 -16 -80 -25 -85 -11 -2 7 -7
-16 -10 -51 -8 -76 6 -110 61 -147 42 -28 222 -69 262 -60 20 4 22 3 10 -6
-12 -8 -8 -9 15 -4 17 4 40 9 52 10 76 10 479 109 713 176 220 63 633 199 641
212 4 5 10 -15 14 -44 16 -131 36 -225 56 -266 31 -63 82 -115 111 -111 20 3
23 8 22 48 0 25 -12 108 -27 185 -29 159 -42 253 -33 244 4 -3 55 13 114 36
l107 43 12 -101 c17 -140 51 -315 68 -348 16 -29 41 -44 50 -28 4 5 -4 31 -16
56 -21 43 -23 64 -27 267 -4 202 -3 219 12 201 14 -18 15 -5 16 167 0 114 -4
189 -10 193 -5 3 -11 -2 -12 -12 -1 -10 -5 32 -8 92 -11 169 -10 824 1 800 6
-14 7 -10 2 15 -4 19 -7 53 -8 75 0 36 3 41 39 58 23 11 35 22 29 28 -18 18
-119 29 -307 34 -173 5 -188 4 -156 -9 32 -13 7 -15 -258 -15 -174 -1 -321 4
-361 10 -58 10 -76 9 -119 -5 -45 -15 -66 -16 -164 -7 -62 6 -232 18 -378 28
-196 13 -252 20 -215 25 33 4 17 5 -45 3 -52 -2 -84 0 -70 4 20 6 13 9 -33 13
-32 2 -63 10 -68 15 -24 24 35 35 219 41 103 3 179 8 168 10 -15 3 -14 6 10
21 74 45 224 212 224 249 0 5 7 15 15 22 9 7 38 54 65 104 27 50 50 87 50 81
0 -5 11 3 25 19 14 16 25 35 25 43 0 7 3 13 8 13 4 1 32 23 62 51 30 27 69 53
85 57 30 7 30 7 -10 13 -23 4 17 7 95 8 262 2 806 22 882 31 43 5 89 17 103
26 14 9 36 14 49 12 43 -9 49 4 61 139 7 70 13 123 14 117 1 -7 20 -8 62 -2
33 4 65 6 69 3 5 -3 11 1 13 7 3 7 6 4 7 -7 0 -11 5 -67 11 -125 5 -58 10
-112 11 -120 0 -8 10 -27 20 -43 16 -22 27 -27 66 -28 26 -1 37 -4 24 -6 -13
-3 -21 -10 -19 -16 2 -7 -2 -28 -10 -47 -8 -19 -17 -46 -19 -59 -3 -13 -16
-40 -29 -59 -14 -20 -26 -43 -26 -52 -1 -8 -5 3 -8 25 -4 22 -10 -72 -14 -210
-4 -137 -4 -267 -1 -288 l7 -37 56 0 c31 0 67 -3 80 -7 17 -4 22 -3 17 5 -4 7
-3 12 2 12 21 0 282 232 478 425 l132 130 6 -190 c6 -176 -3 -387 -17 -401 -3
-3 -100 4 -215 16 -230 23 -297 24 -297 0 0 -27 52 -40 202 -50 153 -10 271
-29 358 -56 117 -38 60 -45 -110 -14 -146 27 -373 50 -488 50 -52 0 -107 4
-123 9 -16 5 -48 12 -71 14 l-43 5 1 -61 c2 -56 2 -58 8 -22 4 22 10 -86 14
-240 4 -154 10 -293 13 -308 5 -20 16 -32 35 -39 37 -13 40 -48 6 -48 -31 0
-54 -26 -61 -70 -11 -61 -3 -64 161 -72 81 -3 149 -7 151 -7 1 -1 2 -8 2 -16
0 -16 55 -34 135 -44 59 -7 71 -25 88 -132 6 -37 14 -66 17 -64 11 7 53 -289
85 -597 18 -179 18 -195 3 -195 -7 0 -35 -10 -63 -22 -27 -13 -77 -34 -110
-48 -33 -14 -77 -33 -97 -43 l-38 -17 53 -11 c140 -30 194 -36 342 -36 114 0
192 5 273 19 92 16 115 17 121 6 6 -9 10 -7 14 8 5 22 59 48 119 58 27 4 35 9
26 14 -10 7 -10 9 2 10 8 1 25 3 38 4 13 1 34 13 47 25 l24 23 19 -23 c26 -32
59 -19 82 34 38 84 41 184 71 2311 13 939 15 1213 11 1745 -3 583 13 1960 48
3945 29 1663 37 3374 16 3418 -13 27 -36 20 -51 -17 -11 -27 -14 -83 -13 -248
1 -149 -3 -231 -13 -273 -13 -58 -14 -52 -21 195 -8 292 -16 400 -29 400 -14
0 -39 -56 -40 -92 -1 -33 -1 -33 -10 7 -4 22 -8 61 -8 88 l-1 47 -42 0 c-27 0
-38 3 -30 9 9 5 -8 12 -50 20 -35 7 -91 23 -125 37 -111 43 -308 51 -718 29
-49 -3 -214 -10 -365 -15 -151 -6 -329 -12 -395 -15 -66 -2 -187 -7 -270 -10
-82 -3 -199 -8 -260 -12 -60 -3 -227 -5 -370 -4 -205 1 -291 -3 -405 -18 -80
-10 -148 -17 -151 -15 -5 3 -341 -9 -584 -21 -55 -2 -149 -5 -210 -5 -80 0
-106 -3 -95 -11 12 -8 11 -9 -5 -5 -63 16 -299 60 -415 77 -173 26 -550 37
-711 20 -112 -11 -357 -47 -391 -57 -12 -4 -18 -15 -18 -34 0 -51 -9 -60 -56
-60 -49 0 -50 1 -57 104 -5 77 -27 97 -174 159 -109 46 -113 47 -214 46 -79
-1 -97 -3 -74 -10 17 -5 50 -6 75 -3 25 4 41 3 37 -2 -4 -4 -47 -9 -95 -11
-107 -4 -122 -5 -116 -14 2 -4 -3 -9 -11 -13 -8 -3 -15 0 -16 7 -1 7 -5 -4 -9
-23 -8 -30 -17 -137 -34 -371 -2 -30 -10 -54 -24 -69 -12 -13 -20 -26 -18 -29
2 -3 -3 -12 -11 -20 -14 -13 -15 12 -8 231 9 294 19 362 57 391 33 25 42 19
28 -18 -17 -45 0 -51 72 -27 161 54 286 52 473 -8 206 -67 207 -67 530 -59
444 11 1004 10 1050 -2 97 -26 193 -39 382 -50 252 -15 596 -7 673 15 148 42
425 44 1365 10 502 -18 619 -15 878 27 76 12 136 23 135 24 -2 1 -88 6 -193
10 -104 4 -210 9 -235 10 -25 1 -135 5 -245 9 -110 4 -222 9 -250 11 -27 3
-120 7 -205 10 -360 12 -481 17 -588 25 -62 4 -167 9 -234 9 -67 1 -124 4
-128 6 -4 2 -119 6 -256 9 -613 13 -769 19 -773 28 -2 6 -7 4 -12 -3 -7 -12
-105 -14 -546 -16 -296 -1 -578 -5 -628 -8 -49 -3 -126 -7 -170 -9 -44 -2 -89
-6 -100 -10 -11 -4 -2 4 20 18 122 80 374 104 1205 115 779 11 1733 12 2070 1z
m-3623 -67 c7 -19 -30 -32 -67 -24 l-34 7 24 17 c27 19 71 19 77 0z m263 -15
c-15 -25 -17 -36 -8 -52 7 -15 7 -18 0 -11 -15 13 -110 6 -115 -8 -2 -7 -2 -1
0 13 3 14 10 31 16 39 15 17 86 50 109 51 16 0 16 -2 -2 -32z m508 -35 c-10
-2 -26 -2 -35 0 -10 3 -2 5 17 5 19 0 27 -2 18 -5z m-395 -30 c-7 -2 -19 -2
-25 0 -7 3 -2 5 12 5 14 0 19 -2 13 -5z m-736 -69 c-3 -3 -12 -4 -19 -1 -8 3
-5 6 6 6 11 1 17 -2 13 -5z m6020 -466 c-2 -24 -4 -7 -4 37 0 44 2 63 4 43 2
-21 2 -57 0 -80z m824 -628 c49 -9 316 -31 704 -60 242 -18 383 -38 495 -69
162 -46 249 -81 267 -107 13 -20 24 -24 63 -24 66 0 100 -14 100 -41 0 -17 4
-20 22 -16 28 8 76 -13 119 -51 19 -16 52 -37 73 -46 77 -32 407 -290 549
-429 40 -39 58 -59 40 -43 l-33 30 0 -30 c0 -17 4 -55 9 -85 6 -30 15 -99 20
-154 6 -55 14 -135 19 -178 5 -52 5 -74 -2 -67 -5 5 -15 10 -20 10 -6 0 0 -7
12 -16 12 -8 22 -22 22 -30 0 -8 4 -12 10 -9 5 3 7 0 4 -9 -3 -8 23 -58 64
-119 38 -57 72 -118 75 -135 4 -19 13 -32 22 -32 21 0 41 -37 49 -88 4 -24 15
-60 25 -80 26 -52 77 -218 102 -337 26 -124 37 -355 19 -409 -9 -29 -16 -37
-33 -34 -18 2 -24 13 -30 53 -16 95 -37 165 -77 248 -22 46 -46 111 -54 143
-7 32 -23 84 -35 114 -33 82 -134 291 -138 286 -3 -2 1 -14 7 -26 15 -29 16
-559 1 -760 -20 -265 -46 -516 -62 -609 -5 -30 -10 -73 -10 -95 -2 -36 -3 -34
-10 19 -5 33 -13 105 -18 160 -6 55 -15 127 -20 160 -6 33 -18 114 -27 180
-20 141 -69 364 -118 526 -19 63 -42 151 -51 194 -16 79 -30 109 -46 100 -4
-3 -7 17 -7 44 3 100 -111 280 -278 441 -458 441 -1046 669 -1534 595 -119
-18 -252 -56 -344 -99 -77 -35 -88 -45 -103 -91 l-10 -30 -13 40 c-30 92 -21
875 11 989 6 21 21 49 34 62 27 26 52 29 136 14z m-256 -518 c-4 -140 -11
-250 -15 -245 -12 11 -17 455 -7 527 l9 59 -25 -7 c-29 -7 -37 7 -37 60 0 39
11 43 33 12 l15 -23 14 35 c12 33 13 31 16 -65 2 -55 0 -214 -3 -353z m-468
341 c-2 -16 -4 -5 -4 22 0 28 2 40 4 28 2 -13 2 -35 0 -50z m350 -285 c-2 -24
-4 -7 -4 37 0 44 2 63 4 43 2 -21 2 -57 0 -80z m30 -295 c-2 -21 -4 -4 -4 37
0 41 2 58 4 38 2 -21 2 -55 0 -75z m978 -193 c-8 -13 -65 -13 -85 0 -11 7 0
10 38 10 33 0 51 -4 47 -10z m-7878 -127 c-3 -10 -5 -2 -5 17 0 19 2 27 5 18
2 -10 2 -26 0 -35z m6960 -65 c-2 -13 -4 -3 -4 22 0 25 2 35 4 23 2 -13 2 -33
0 -45z m1126 33 c222 -45 443 -138 593 -248 155 -115 329 -297 461 -481 165
-229 247 -477 323 -968 47 -312 95 -822 85 -924 -4 -43 -3 -60 4 -51 6 10 9
-22 8 -95 -1 -60 2 -260 7 -444 11 -436 -12 -1105 -54 -1560 -15 -163 -19
-233 -10 -185 13 71 10 -3 -5 -137 -33 -293 -71 -529 -121 -748 -100 -433
-214 -647 -482 -901 -192 -182 -412 -315 -603 -363 -220 -56 -512 -73 -799
-46 -147 14 -211 34 -303 96 -82 56 -129 109 -202 225 l-56 87 15 799 c9 439
20 1736 26 2883 6 1147 15 2198 20 2335 7 217 11 258 30 312 75 216 277 382
516 428 117 22 405 14 547 -14z m-8070 -2161 c6 -204 8 -472 3 -478 -10 -10
-7 -82 4 -82 13 0 13 -107 0 -115 -13 -8 -13 -92 0 -100 5 -3 10 -21 10 -40 0
-19 -5 -37 -10 -40 -15 -9 -13 -88 2 -82 18 6 18 -115 1 -126 -7 -4 -13 -25
-13 -47 0 -44 9 -72 20 -65 7 5 16 -186 12 -285 -15 -476 -11 -951 12 -1345 2
-38 9 -169 15 -290 12 -228 29 -373 41 -339 4 10 10 -66 14 -171 l8 -189 94
-137 c52 -76 97 -145 100 -154 12 -31 -55 12 -116 74 -83 84 -139 212 -175
401 -29 149 -34 588 -38 3220 -4 1987 -3 2324 4 1515 5 -572 10 -1078 12
-1125z m6824 2018 c-2 -18 -4 -6 -4 27 0 33 2 48 4 33 2 -15 2 -42 0 -60z
m-460 -181 c-2 -23 -3 -1 -3 48 0 50 1 68 3 42 2 -26 2 -67 0 -90z m-10 -144
c-2 -16 -4 -5 -4 22 0 28 2 40 4 28 2 -13 2 -35 0 -50z m2839 -115 c63 -86
125 -208 105 -208 -5 0 -18 15 -29 33 -86 145 -132 225 -132 230 0 16 13 3 56
-55z m-2829 -185 c-1 -43 -3 -8 -3 77 0 85 2 120 3 78 2 -43 2 -113 0 -155z
m-10 -365 c-2 -35 -3 -9 -3 57 0 66 1 94 3 63 2 -32 2 -86 0 -120z m3383 74
c0 -10 15 -32 34 -48 29 -26 37 -43 56 -128 13 -53 29 -103 36 -110 18 -18 22
-41 34 -186 5 -69 23 -204 40 -300 16 -96 36 -233 45 -303 40 -349 68 -965 64
-1434 -2 -155 0 -286 4 -289 4 -4 7 -2 7 6 0 7 12 40 26 74 15 33 32 75 39 91
8 17 25 62 40 100 15 39 33 84 40 100 34 78 224 639 266 785 11 41 25 86 29
100 4 14 13 45 20 70 6 25 16 61 22 80 6 19 14 76 17 125 6 85 7 77 24 -150 9
-132 22 -330 29 -440 16 -274 16 -1138 0 -1390 -37 -570 -90 -1069 -154 -1445
-27 -163 -35 -201 -37 -172 -1 19 -10 12 -58 -45 -32 -37 -60 -70 -63 -73 -3
-3 -20 -23 -39 -45 -168 -198 -390 -435 -640 -685 -283 -282 -460 -445 -479
-442 -10 2 1 -10 24 -26 58 -42 106 -118 102 -162 -3 -29 -7 -35 -34 -40 -17
-4 -50 -26 -75 -51 -29 -29 -91 -68 -179 -113 -165 -84 -197 -107 -208 -149
-5 -18 -16 -33 -26 -35 -19 -4 -66 34 -66 54 0 18 -26 35 -43 28 -9 -3 -23
-28 -32 -55 -25 -75 -55 -91 -218 -120 -37 -6 -66 -14 -63 -17 9 -8 -119 -100
-145 -104 -20 -4 -17 -6 16 -13 26 -5 59 -3 100 6 33 8 87 14 121 14 34 0 68
6 76 12 8 7 51 19 94 27 102 18 222 64 304 118 51 33 70 54 87 91 13 26 28 47
33 47 7 0 8 -6 0 -19 -15 -29 -14 -30 32 -28 56 3 65 -25 16 -46 -18 -8 -60
-35 -93 -59 -73 -55 -108 -73 -197 -104 -143 -48 -417 -94 -823 -138 -465 -51
-580 -67 -772 -111 -40 -9 -77 -14 -83 -10 -5 3 -10 3 -10 -2 0 -4 -14 -16
-30 -25 -37 -21 -38 -35 -5 -50 14 -6 25 -19 25 -30 0 -14 -8 -18 -32 -18 -18
0 -38 4 -44 8 -50 33 -67 191 -53 507 10 222 33 477 48 517 7 20 8 20 16 2 5
-10 12 -122 15 -249 3 -126 7 -220 8 -207 2 19 11 26 33 24 3 -1 9 40 13 91
13 168 55 297 97 297 18 0 20 -4 15 -26 -5 -19 -2 -32 13 -48 11 -12 26 -39
33 -61 22 -68 70 -57 170 38 7 7 40 35 73 62 33 28 63 54 66 59 4 4 63 12 132
17 313 22 491 65 799 195 81 35 112 44 121 35 16 -16 -11 -41 -65 -61 -23 -8
-43 -21 -46 -27 -8 -25 44 -13 104 23 32 20 86 49 119 64 33 15 96 58 140 96
102 87 389 371 353 349 -16 -10 -28 -13 -28 -8 0 20 62 105 80 110 32 9 150
212 150 259 0 28 -20 3 -59 -74 -69 -135 -94 -149 -45 -24 29 74 56 123 91
165 13 16 23 42 23 58 0 62 32 172 57 197 24 24 25 30 20 109 -4 78 -4 83 14
78 22 -7 25 11 33 165 6 109 40 427 51 470 3 14 10 66 15 115 6 50 15 124 20
165 6 41 11 102 11 134 1 77 17 121 20 56 2 -41 3 -42 6 -11 3 19 10 40 18 45
18 15 165 306 166 331 1 16 2 16 8 -5 22 -76 44 642 38 1210 -8 709 -49 1237
-142 1858 -28 184 -29 192 -15 192 6 0 10 -8 10 -18z m-3403 -79 c-2 -16 -4
-5 -4 22 0 28 2 40 4 28 2 -13 2 -35 0 -50z m10 -400 c-2 -32 -3 -6 -3 57 0
63 1 89 3 58 2 -32 2 -84 0 -115z m-6670 -65 c-2 -13 -4 -3 -4 22 0 25 2 35 4
23 2 -13 2 -33 0 -45z m10461 -45 c31 -79 21 -197 -21 -241 -20 -21 -22 -38
-30 -204 -7 -172 -10 -198 -22 -187 -12 13 -25 157 -25 286 0 221 28 373 70
373 10 0 22 -12 28 -27z m-3801 -150 c-2 -16 -4 -3 -4 27 0 30 2 43 4 28 2
-16 2 -40 0 -55z m-20 -495 c-1 -40 -3 -8 -3 72 0 80 2 112 3 73 2 -40 2 -106
0 -145z m3332 -96 c1 -33 -3 -51 -9 -47 -6 3 -9 45 -9 93 1 73 3 81 10 47 4
-22 8 -64 8 -93z m440 -149 c1 -39 -3 -75 -9 -78 -6 -4 -10 29 -9 92 0 64 3
91 9 78 5 -11 9 -52 9 -92z m-3782 -80 c-2 -21 -4 -6 -4 32 0 39 2 55 4 38 2
-18 2 -50 0 -70z m3372 -250 c-2 -85 -2 -86 -9 -33 -11 80 -11 120 0 120 6 0
9 -35 9 -87z m1 -1378 c0 -50 -4 -85 -10 -85 -5 0 -10 17 -10 39 0 44 11 131
16 131 2 0 4 -38 4 -85z m-173 -637 c-3 -7 -5 -2 -5 12 0 14 2 19 5 13 2 -7 2
-19 0 -25z m-9607 -593 c6 -66 18 -162 26 -213 17 -110 20 -220 6 -234 -31
-31 -72 390 -72 733 0 229 14 244 21 24 4 -104 12 -244 19 -310z m6574 -169
c12 -102 -22 -262 -83 -398 -31 -69 -53 -93 -76 -84 -23 9 -18 52 8 69 32 21
70 139 97 302 11 72 23 138 26 148 10 32 21 17 28 -37z m-6452 -643 c14 -16
37 -51 51 -79 29 -57 48 -76 79 -78 15 -1 24 -10 30 -31 11 -35 2 -594 -12
-835 -16 -265 -40 -428 -59 -415 -20 12 -35 208 -56 750 -19 485 -27 572 -60
643 -14 30 -25 58 -25 63 0 18 27 8 52 -18z m-220 -223 c-14 -13 -21 -39 -26
-87 -9 -90 -25 -597 -27 -848 -1 -176 -3 -191 -11 -120 -5 44 -7 285 -5 535 5
486 8 525 59 641 l23 54 3 -79 c2 -67 0 -81 -16 -96z m6578 117 c0 -2 -16 -18
-35 -37 -19 -19 -35 -31 -35 -26 0 4 15 20 32 37 31 28 38 33 38 26z m-5940
-63 c0 -9 -9 -29 -21 -45 -35 -49 -70 -31 -43 23 19 37 64 53 64 22z m427 -69
c22 -19 24 -24 11 -25 -9 0 -30 11 -45 25 -22 19 -24 24 -11 25 9 0 30 -11 45
-25z m3756 -10 c29 5 29 4 6 -4 -14 -4 -35 -14 -47 -20 -21 -11 -21 -11 -10
15 7 14 14 21 16 16 2 -7 17 -9 35 -7z m127 -67 c0 -61 -14 -92 -30 -68 -5 8
-8 22 -5 30 2 8 7 32 11 53 9 54 24 45 24 -15z m-4275 12 c0 -18 -6 -26 -21
-28 -26 -4 -40 24 -23 45 18 21 44 11 44 -17z m1855 20 c11 -7 5 -10 -23 -10
-23 0 -36 4 -32 10 8 13 35 13 55 0z m-999 -79 c13 -11 21 -22 17 -26 -11 -11
-52 2 -79 25 l-24 19 31 1 c18 0 42 -9 55 -19z m4294 -22 c8 -13 -20 -45 -45
-52 -14 -4 -18 0 -16 17 1 12 6 27 10 34 9 15 42 16 51 1z m464 -3 c-19 -17
-47 -23 -60 -14 -12 8 -11 9 2 5 9 -3 22 -1 30 4 13 8 37 13 28 5z m3739 -18
c17 -17 15 -63 -3 -78 -35 -29 -104 40 -75 75 15 18 61 20 78 3z m-4688 -7 c0
-13 -26 -21 -66 -21 -33 0 -46 14 -21 23 21 9 87 7 87 -2z m-1690 -30 c-8 -4
-40 -5 -70 -1 l-55 7 70 1 c41 1 64 -2 55 -7z m463 -1 c-13 -5 -86 -6 -170 -1
l-148 8 170 1 c109 0 162 -2 148 -8z m1415 -67 c2 -9 -8 -13 -32 -13 -34 0
-52 11 -39 24 11 11 66 2 71 -11z m397 7 c4 -6 -17 -10 -55 -10 -38 0 -59 4
-55 10 3 6 28 10 55 10 27 0 52 -4 55 -10z m-2921 -26 c25 -10 8 -24 -30 -24
-32 0 -42 8 -27 23 8 9 36 9 57 1z m6842 -55 c15 -16 19 -36 19 -86 0 -56 -3
-67 -24 -84 -23 -19 -25 -19 -54 -2 -43 26 -68 77 -55 114 10 31 61 79 82 79
7 0 21 -9 32 -21z m-2822 -47 c-3 -20 -20 -71 -36 -112 -26 -66 -30 -88 -30
-175 l0 -100 -15 55 c-8 30 -22 63 -30 72 -24 27 -12 104 31 195 40 84 63 116
78 107 5 -3 6 -22 2 -42z m1886 -78 c-30 -30 -63 -60 -73 -65 -24 -14 -41 -1
-25 18 13 16 138 103 148 103 2 0 -20 -25 -50 -56z m-1820 -15 c0 -11 4 -28 9
-38 6 -10 13 -42 17 -72 9 -78 -12 -52 -31 37 -17 82 -18 94 -5 94 6 0 10 -9
10 -21z m3104 -51 c-43 -74 -196 -257 -300 -358 -199 -193 -393 -333 -590
-427 -103 -49 -132 -56 -62 -15 26 15 109 77 184 139 76 62 142 109 148 106 6
-3 8 -3 4 2 -13 14 21 65 43 65 30 0 49 24 49 60 0 32 0 32 41 25 32 -6 40 -4
34 6 -6 9 -4 11 8 6 9 -3 19 -1 23 5 5 7 2 8 -7 3 -15 -9 126 125 178 169 17
14 37 25 45 24 7 -2 12 2 11 9 -1 6 32 41 75 78 42 37 85 78 95 91 20 25 33
33 21 12z m-2961 -133 c-3 -9 -8 -14 -10 -11 -3 3 -2 9 2 15 9 16 15 13 8 -4z
m199 -42 c31 -29 35 -43 14 -43 -7 0 -26 16 -40 35 -32 42 -15 47 26 8z m2108
-27 c0 -7 -7 -21 -15 -32 -15 -19 -15 -19 -30 0 -18 24 -19 58 -2 75 10 10 15
8 30 -10 9 -11 17 -27 17 -33z m-2613 -233 c-3 -10 -5 -2 -5 17 0 19 2 27 5
18 2 -10 2 -26 0 -35z m-5181 -74 c11 -19 -18 -29 -85 -29 -69 0 -73 11 -11
28 48 14 87 14 96 1z m214 -19 c-8 -5 -31 -10 -50 -10 -19 0 -42 5 -50 10 -11
7 4 10 50 10 46 0 61 -3 50 -10z m-1953 -122 c-2 -18 -4 -4 -4 32 0 36 2 50 4
33 2 -18 2 -48 0 -65z m3388 62 c16 -7 13 -9 -17 -9 -21 -1 -38 4 -38 9 0 12
27 12 55 0z m2335 -171 c47 -16 90 -47 90 -65 0 -22 -29 -17 -61 10 -18 16
-56 30 -101 40 -168 34 -171 36 -63 31 55 -2 116 -9 135 -16z m-4142 -21 c7
-7 12 -18 12 -25 0 -21 -32 -15 -65 12 l-30 24 36 1 c19 0 40 -5 47 -12z
m5331 -98 c6 -19 15 -89 21 -154 6 -66 18 -160 26 -209 21 -120 32 -227 23
-227 -8 0 -44 82 -58 136 -19 70 -41 294 -41 409 0 111 8 123 29 45z m-3902
39 c6 -6 76 -15 162 -20 105 -5 159 -13 181 -24 26 -13 85 -18 303 -25 150 -5
286 -14 302 -20 27 -9 26 -10 -17 -5 -36 3 -52 0 -73 -17 -24 -19 -35 -20
-123 -15 -340 21 -390 26 -443 47 -45 18 -83 22 -237 27 -100 4 -185 10 -188
15 -6 10 73 47 102 48 11 0 25 -5 31 -11z m2933 -39 c0 -5 -13 -10 -29 -10
-17 0 -33 5 -36 10 -4 6 8 10 29 10 20 0 36 -4 36 -10z m-4973 -182 c13 -12
23 -29 22 -37 0 -11 -2 -12 -6 -3 -2 6 -9 12 -14 12 -6 0 -7 -6 -3 -12 9 -14
-26 10 -38 27 -4 6 -8 1 -8 -9 0 -11 -2 -17 -5 -14 -9 9 6 58 18 58 6 0 21
-10 34 -22z m286 -19 c-22 -23 -46 -18 -36 6 3 8 17 15 31 15 l26 0 -21 -21z
m2855 -15 c32 -5 41 -17 22 -29 -6 -3 -119 -2 -253 4 -486 21 -446 21 -407 5
32 -13 18 -14 -140 -9 -212 7 -310 15 -310 26 0 15 992 18 1088 3z m255 -39
c54 -14 101 -25 105 -25 24 -1 -34 -20 -93 -29 -51 -9 -79 -9 -99 -2 -15 6
-39 12 -54 12 -27 1 -27 1 3 8 27 6 28 8 9 14 -12 4 -29 16 -39 27 -18 20 -17
20 26 20 24 0 88 -11 142 -25z m908 -6 c17 -17 19 -23 8 -30 -18 -11 -70 -11
-89 1 -12 7 -12 12 4 29 24 27 50 27 77 0z m1094 -33 c20 -31 16 -80 -7 -84
-12 -2 -20 7 -27 35 -6 21 -11 46 -11 56 0 25 27 21 45 -7z m-925 -27 c0 -16
-66 -39 -115 -39 -25 0 -45 4 -45 9 0 10 94 39 133 40 15 1 27 -4 27 -10z
m-5449 -84 c4 -29 -3 -395 -8 -423 -12 -71 -18 -11 -23 217 -5 225 -4 237 13
227 9 -6 18 -15 18 -21z m4512 28 c-13 -2 -33 -2 -45 0 -13 2 -3 4 22 4 25 0
35 -2 23 -4z m-3405 -67 c4 -43 -2 -45 -32 -9 -23 27 -23 27 -30 5 -10 -32
-26 -27 -26 7 0 19 8 35 22 45 32 23 62 1 66 -48z m5327 -176 c47 -351 69
-670 46 -656 -5 3 -12 39 -16 78 -4 40 -25 190 -46 333 -64 422 -66 438 -43
461 19 19 19 19 26 -6 5 -14 19 -108 33 -210z m-312 -25 c30 -187 84 -771 72
-783 -3 -4 -13 1 -20 11 -8 12 -15 14 -20 8 -3 -6 -15 -11 -25 -11 -10 0 -21
-8 -23 -17 -3 -10 -5 3 -6 29 -1 58 6 78 29 78 19 0 32 32 23 56 -3 8 -12 14
-19 14 -27 0 -44 79 -64 285 -5 61 -14 157 -20 214 -10 105 -7 126 20 126 11
0 16 14 18 54 2 30 7 50 11 45 5 -5 16 -54 24 -109z m-3986 92 c3 -4 4 -9 1
-12 -20 -20 -368 -46 -368 -28 0 15 24 23 115 39 80 13 239 14 252 1z m2587
-3 c13 -5 14 -9 5 -20 -16 -19 -99 -19 -99 0 0 23 56 34 94 20z m-264 -13 c0
-24 -92 -27 -210 -7 l-75 13 143 2 c78 0 142 -3 142 -8z m1837 -23 c-3 -7 -5
-2 -5 12 0 14 2 19 5 13 2 -7 2 -19 0 -25z m-5801 -40 c-9 -55 -34 -278 -61
-558 -24 -259 -40 -360 -57 -360 -12 0 -10 94 7 290 23 263 57 480 101 638 10
34 17 26 10 -10z m1144 1 c0 -29 -18 -59 -35 -59 -19 0 -19 14 0 50 18 35 35
39 35 9z m-1352 -174 c3 -77 -2 -171 -13 -260 -9 -77 -18 -201 -18 -276 l-1
-137 -23 9 c-18 7 -25 4 -34 -12 -19 -37 -22 -12 -6 63 9 40 18 114 21 163 25
365 37 526 42 564 11 77 28 18 32 -114z m6042 7 c-7 -12 -9 -2 -9 38 1 55 1
55 10 17 6 -24 5 -45 -1 -55z m-4699 20 c0 -14 2 -13 9 3 12 29 12 -105 0
-197 -5 -40 -16 -167 -25 -283 -8 -116 -17 -229 -20 -252 l-6 -41 -54 -4 -55
-3 0 45 c0 25 7 99 15 165 15 120 93 598 94 581 1 -6 6 -5 13 2 14 14 28 6 29
-16z m4753 -322 c14 -102 28 -246 32 -320 l7 -136 -26 -29 c-23 -27 -27 -29
-42 -14 -14 13 -15 53 -9 360 4 189 9 340 10 334 2 -5 14 -93 28 -195z m-6364
-25 c0 -37 -4 -65 -10 -65 -6 0 -10 28 -10 65 0 37 4 65 10 65 6 0 10 -28 10
-65z m6844 -235 c4 -27 9 -50 12 -50 3 0 14 10 24 23 10 12 21 19 25 15 8 -7
-17 -93 -40 -137 -31 -61 -98 -67 -75 -7 5 15 10 39 10 53 0 43 21 153 30 153
4 0 10 -22 14 -50z m-6200 -176 c7 -19 -28 -54 -53 -54 -26 0 -35 17 -16 28 9
4 17 17 17 28 2 15 8 19 24 16 13 -2 25 -10 28 -18z m716 2 l35 -16 -55 4
c-30 2 -71 12 -90 21 l-35 16 55 -5 c31 -2 71 -11 90 -20z m-1141 -27 c30 -11
59 -45 47 -56 -8 -8 -77 14 -101 33 -17 13 -18 16 -5 24 19 12 21 12 59 -1z
m296 -10 c10 -16 -25 -49 -52 -49 -27 0 -30 21 -7 44 18 18 50 21 59 5z"/>
<path d="M7163 9455 c0 -33 2 -45 4 -27 2 18 2 45 0 60 -2 15 -4 0 -4 -33z"/>
<path d="M2970 2889 c0 -17 4 -28 10 -24 6 3 10 17 10 31 0 13 -4 24 -10 24
-5 0 -10 -14 -10 -31z"/>
<path d="M5211 2755 c-1 -11 -52 -63 -113 -115 -61 -52 -119 -103 -129 -112
-9 -9 -28 -18 -41 -21 -13 -2 46 -5 130 -6 117 -1 154 2 158 12 2 7 3 69 1
138 -1 68 -4 115 -6 104z"/>
<path d="M5303 2705 c0 -22 2 -30 4 -17 2 12 2 30 0 40 -3 9 -5 -1 -4 -23z"/>
<path d="M2860 2175 c0 -42 4 -64 10 -60 6 3 10 30 10 60 0 30 -4 57 -10 60
-6 4 -10 -18 -10 -60z"/>
<path d="M1072 1935 c0 -16 2 -22 5 -12 2 9 2 23 0 30 -3 6 -5 -1 -5 -18z"/>
<path d="M5493 1456 c-62 -30 -93 -41 -97 -33 -2 7 -4 -80 -4 -193 0 -113 2
-199 5 -192 2 6 9 12 14 12 4 0 37 13 71 28 35 16 79 35 98 43 19 8 98 47 176
87 123 62 143 70 147 55 10 -38 6 67 -4 118 -17 86 -26 93 -127 100 -48 4
-109 10 -137 14 -46 6 -58 3 -142 -39z"/>
<path d="M7040 1255 c0 -25 5 -45 10 -45 6 0 10 20 10 45 0 25 -4 45 -10 45
-5 0 -10 -20 -10 -45z"/>
<path d="M7100 1255 c0 -46 14 -60 25 -26 7 23 -4 71 -16 71 -5 0 -9 -20 -9
-45z"/>
<path d="M2890 510 c0 -27 21 -70 31 -64 13 8 11 58 -3 72 -18 18 -28 15 -28
-8z"/>
<path d="M10047 9789 c7 -7 15 -10 18 -7 3 3 -2 9 -12 12 -14 6 -15 5 -6 -5z"/>
<path d="M10073 7955 c0 -27 2 -38 4 -22 2 15 2 37 0 50 -2 12 -4 0 -4 -28z"/>
<path d="M9921 4974 c0 -11 3 -14 6 -6 3 7 2 16 -1 19 -3 4 -6 -2 -5 -13z"/>
<path d="M9450 2640 c-78 -39 -140 -73 -137 -77 4 -3 -4 -14 -17 -24 -33 -26
-44 -24 -15 2 l24 20 -27 -17 c-15 -9 -26 -20 -23 -24 6 -9 -29 -41 -63 -57
-16 -8 -19 -11 -7 -8 46 10 114 24 168 35 48 10 69 21 120 67 34 30 79 64 99
74 53 27 75 79 34 79 -8 0 -78 -32 -156 -70z"/>
<path d="M10204 2748 l-19 -23 23 19 c12 11 22 21 22 23 0 8 -8 2 -26 -19z"/>
<path d="M10105 2658 l-70 -73 73 70 c67 64 77 75 69 75 -1 0 -34 -33 -72 -72z"/>
</g>
</svg>
